<svg xmlns="http://www.w3.org/2000/svg" viewBox="0 0 546.635 106.467" role="img" aria-label="Snapchat">
  <!-- Official Snapchat primary lockup extracted from Snap brand guidelines PDF and not redrawn. -->
  <path d="M538.463 78.945 C534.524 81.128 531.94 80.871 529.872 82.155 C528.13 83.247 529.161 85.623 527.933 86.522 C526.384 87.549 521.797 86.457 515.918 88.384 C511.073 89.989 507.974 94.548 499.19 94.548 C490.402 94.548 487.432 89.989 482.459 88.384 C476.58 86.457 471.993 87.613 470.443 86.522 C469.216 85.687 470.186 83.247 468.504 82.155 C466.504 80.871 463.856 81.063 459.913 78.945 C457.394 77.596 458.815 76.697 459.656 76.312 C473.932 69.441 476.193 58.846 476.322 58.076 C476.644 57.113 476.322 56.021 475.546 55.379 C474.512 54.48 469.992 51.719 468.701 50.82 C466.633 49.407 465.728 47.93 466.375 46.197 C466.826 45.105 467.989 44.399 469.216 44.527 C469.603 44.527 469.992 44.591 470.379 44.656 C472.64 45.169 474.837 46.261 476.129 46.582 C476.258 46.646 476.451 46.646 476.58 46.646 C477.292 46.646 477.485 46.325 477.485 45.555 C477.163 41.638 477.163 37.657 477.356 33.74 C477.485 29.309 479.292 25.007 482.33 21.732 C491.565 12.486 506.618 12.421 515.918 21.604 L516.05 21.732 C519.084 25.007 520.83 29.245 521.023 33.74 C521.281 37.657 521.217 41.638 520.895 45.555 C520.83 46.389 521.088 46.646 521.797 46.646 C521.99 46.646 522.122 46.646 522.251 46.582 C523.542 46.261 525.739 45.169 527.998 44.656 C528.387 44.591 528.774 44.527 529.096 44.527 C530.323 44.399 531.422 45.105 531.94 46.197 C532.585 47.995 531.68 49.407 529.615 50.82 C528.387 51.655 523.865 54.48 522.831 55.379 C522.057 56.021 521.732 57.049 522.057 58.076 C522.186 58.846 524.445 69.441 538.721 76.312 C539.562 76.761 540.982 77.596 538.463 78.945" fill="#fef9e7" fill-rule="nonzero"/>
  <path d="M544.923 75.541 C544.343 74.065 543.18 72.78 541.695 72.138 C541.434 72.01 541.176 71.881 540.983 71.753 C540.596 71.56 540.142 71.367 539.691 71.111 C535.687 69.12 532.263 66.166 529.615 62.571 C528.968 61.607 528.388 60.58 527.869 59.552 C527.676 59.167 527.676 58.718 527.805 58.333 C527.934 58.076 528.13 57.883 528.388 57.755 C529.097 57.241 529.873 56.792 530.388 56.406 C531.293 55.828 532.07 55.315 532.521 54.994 C534.07 53.966 535.362 52.618 536.332 51.012 C537.43 48.958 537.559 46.518 536.721 44.335 C535.494 41.252 532.456 39.197 529.097 39.326 C528.388 39.326 527.612 39.39 526.903 39.583 L526.32 39.711 C526.384 37.528 526.32 35.345 526.126 33.226 C525.869 27.704 523.672 22.374 519.926 18.329 C518.115 16.338 515.986 14.605 513.596 13.256 C504.615 8.376 493.698 8.376 484.72 13.256 C482.33 14.605 480.198 16.274 478.391 18.329 C474.773 22.438 472.576 27.704 472.319 33.226 C472.122 35.409 472.058 37.592 472.122 39.711 L471.542 39.583 C470.831 39.39 470.057 39.326 469.345 39.326 C465.986 39.197 462.951 41.188 461.724 44.335 C460.883 46.518 461.012 48.958 462.111 51.012 C463.016 52.618 464.307 54.031 465.921 54.994 C466.375 55.315 467.149 55.764 468.054 56.406 C468.569 56.727 469.281 57.177 469.993 57.69 C470.251 57.883 470.444 58.076 470.637 58.333 C470.831 58.718 470.766 59.167 470.573 59.552 C470.122 60.58 469.539 61.607 468.894 62.506 C466.247 66.102 462.887 68.927 459.012 70.918 C456.815 72.138 454.489 72.844 453.52 75.477 C452.808 77.66 453.391 80.1 455.134 81.641 C455.845 82.348 456.621 82.926 457.459 83.439 C459.269 84.403 461.206 85.173 463.209 85.751 C463.596 85.879 464.05 86.008 464.372 86.265 C465.019 86.842 464.952 87.741 465.857 89.026 C466.311 89.668 466.891 90.31 467.538 90.759 C469.474 91.851 471.671 92.365 473.868 92.236 C476.258 92.236 478.584 92.557 480.845 93.264 C482.073 93.777 483.3 94.355 484.395 95.126 C493.312 101.226 505.069 101.226 513.982 95.126 C515.081 94.42 516.244 93.777 517.471 93.264 C519.732 92.557 522.122 92.236 524.445 92.236 C526.642 92.365 528.839 91.851 530.778 90.759 C531.551 90.181 532.263 89.475 532.714 88.64 C533.361 87.549 533.361 86.778 533.941 86.265 C534.266 86.072 534.653 85.879 535.04 85.751 C537.108 85.237 539.047 84.467 540.854 83.439 C541.759 82.926 542.597 82.283 543.309 81.577 C545.119 79.972 545.635 77.66 544.923 75.541 M538.464 78.944 C534.524 81.128 531.941 80.871 529.873 82.155 C528.13 83.247 529.161 85.622 527.934 86.521 C526.384 87.549 521.797 86.457 515.918 88.384 C511.074 89.989 507.975 94.548 499.19 94.548 C490.403 94.548 487.433 89.989 482.459 88.384 C476.58 86.457 471.993 87.613 470.444 86.521 C469.217 85.687 470.186 83.247 468.505 82.155 C466.504 80.871 463.856 81.063 459.914 78.944 C457.395 77.596 458.815 76.697 459.656 76.312 C473.932 69.441 476.194 58.846 476.323 58.076 C476.645 57.113 476.323 56.021 475.546 55.379 C474.512 54.48 469.993 51.719 468.701 50.82 C466.633 49.407 465.728 47.93 466.375 46.197 C466.826 45.105 467.989 44.399 469.217 44.527 C469.603 44.527 469.993 44.591 470.38 44.656 C472.641 45.169 474.838 46.261 476.129 46.582 C476.258 46.646 476.452 46.646 476.58 46.646 C477.292 46.646 477.485 46.325 477.485 45.555 C477.163 41.637 477.163 37.656 477.357 33.74 C477.486 29.309 479.293 25.007 482.33 21.732 C491.566 12.485 506.619 12.421 515.918 21.603 L516.05 21.732 C519.085 25.007 520.831 29.245 521.024 33.74 C521.282 37.656 521.217 41.637 520.895 45.555 C520.831 46.389 521.088 46.646 521.797 46.646 C521.991 46.646 522.122 46.646 522.251 46.582 C523.543 46.261 525.74 45.169 527.998 44.656 C528.388 44.591 528.774 44.527 529.097 44.527 C530.324 44.399 531.422 45.105 531.941 46.197 C532.585 47.994 531.68 49.407 529.615 50.82 C528.388 51.654 523.865 54.48 522.831 55.379 C522.058 56.021 521.733 57.048 522.058 58.076 C522.187 58.846 524.445 69.441 538.722 76.312 C539.562 76.761 540.983 77.596 538.464 78.944 M49.473 75.07 C49.473 96.826 41.342 105.467 24.275 105.467 L24.281 105.461 C7.859 105.461 1 95.545 1 73.466 C1 70.423 2.916 69.465 5.149 69.465 L15.673 69.465 C17.906 69.465 18.706 70.747 18.545 73.944 C18.067 84.185 19.344 89.305 24.604 89.305 C30.502 89.305 31.463 85.628 31.463 75.549 C31.463 67.231 27.314 61.95 19.5 58.273 C7.859 52.83 1.161 43.23 1.316 28.834 C1.477 8.198 11.363 1 26.198 1 C42.304 1 49.324 9.959 49.324 31.074 C49.324 34.116 47.091 35.074 45.175 35.074 L34.651 35.074 C32.418 35.074 31.463 33.792 31.618 30.912 C32.257 21.474 31.302 17.157 25.875 17.157 C20.933 17.157 19.339 20.199 19.339 29.637 C19.339 36.996 22.688 42.116 29.702 45.314 C41.665 50.751 49.473 60.351 49.473 75.07 M109.283 5 L109.283 101.461 C109.283 103.222 108.006 104.503 106.251 104.503 L93.81 104.503 C92.055 104.503 91.1 103.384 90.777 102.102 L78.814 59.548 C76.582 51.71 75.304 46.751 75.149 45.308 C74.988 44.027 74.833 43.871 74.349 43.871 C73.866 43.871 73.71 44.35 73.872 45.47 C74.033 47.709 74.349 54.428 74.349 59.548 L74.349 101.461 C74.349 103.222 73.072 104.503 71.317 104.503 L59.198 104.503 C57.443 104.503 56.166 103.222 56.166 101.461 L56.166 5 C56.166 3.24 57.443 1.958 59.198 1.958 L71.639 1.958 C73.394 1.958 74.349 3.078 74.672 4.359 L86.635 46.913 C88.867 54.752 90.145 59.71 90.3 61.153 C90.461 62.435 90.616 62.591 91.1 62.591 C91.584 62.591 91.739 62.111 91.577 60.992 C91.416 58.752 91.1 52.033 91.1 46.913 L91.1 5 C91.1 3.24 92.377 1.958 94.132 1.958 L106.251 1.958 C108.006 1.958 109.283 3.24 109.283 5 M154.407 4.839 C154.091 2.916 152.974 1.958 151.219 1.958 L136.229 1.958 C134.475 1.958 133.358 2.916 133.042 4.839 L115.187 95.706 C114.87 97.623 114.232 100.186 114.232 101.623 C114.232 103.384 115.509 104.503 117.103 104.503 L129.699 104.503 C131.454 104.503 132.57 103.862 132.886 101.785 L136.074 80.669 L151.386 80.669 L154.574 101.785 C154.891 103.862 156.007 104.503 157.762 104.503 L170.358 104.503 L170.352 104.497 C171.946 104.497 173.223 103.377 173.223 101.617 C173.223 100.18 172.59 97.623 172.268 95.7 L154.407 4.839 M137.991 67.07 L141.178 46.751 C141.817 43.074 142.772 31.397 142.772 30.115 C142.772 28.834 143.089 28.355 143.727 28.355 C144.366 28.355 144.683 28.84 144.683 30.115 C144.683 31.391 145.96 43.074 146.438 46.751 L149.47 67.07 L137.991 67.07 M207.029 1.958 L181.193 1.958 C179.438 1.958 178.16 3.24 178.16 5 L178.16 101.461 C178.16 103.222 179.438 104.503 181.193 104.503 L195.227 104.503 C196.982 104.503 198.26 103.222 198.26 101.461 L198.26 66.908 L207.662 66.908 C224.568 66.908 231.266 52.991 231.266 34.433 C231.266 15.875 224.89 1.958 207.029 1.958 M202.886 52.506 L198.26 52.506 L198.26 16.354 L202.247 16.354 L202.247 16.348 C209.423 16.348 211.178 21.468 211.178 34.427 C211.178 47.386 209.268 52.506 202.886 52.506 M268.575 31.397 C269.214 21.157 267.62 17.001 262.833 17.001 C255.974 17.001 255.658 24.678 255.658 53.153 C255.658 81.628 255.974 89.466 262.833 89.466 C267.614 89.466 269.214 84.987 268.575 74.268 C268.414 71.226 269.214 69.471 271.448 69.471 L282.295 69.471 C284.366 69.471 286.281 70.591 286.281 73.31 C286.281 97.784 276.557 105.461 262.839 105.461 C242.907 105.461 235.093 90.424 235.093 53.153 C235.093 15.881 242.907 1 262.839 1 C276.551 1 286.281 8.36 286.281 32.355 C286.281 35.236 284.211 36.194 282.295 36.194 L271.448 36.194 C269.214 36.194 268.414 34.433 268.575 31.397 M345.608 5 L345.608 101.461 C345.608 103.222 344.328 104.503 342.573 104.503 L328.54 104.503 C326.785 104.503 325.508 103.222 325.508 101.461 L325.508 58.59 L312.588 58.59 L312.588 101.461 C312.588 103.222 311.311 104.503 309.556 104.503 L295.523 104.503 C293.765 104.503 292.488 103.222 292.488 101.461 L292.488 5 C292.488 3.24 293.765 1.958 295.523 1.958 L309.556 1.958 C311.311 1.958 312.588 3.24 312.588 5 L312.588 42.272 L325.508 42.272 L325.508 5 C325.508 3.24 326.785 1.958 328.54 1.958 L342.573 1.958 C344.328 1.958 345.608 3.24 345.608 5 M390.725 4.839 C390.409 2.916 389.293 1.958 387.538 1.958 L372.55 1.958 C370.792 1.958 369.676 2.916 369.36 4.839 L351.507 95.706 C351.191 97.623 350.552 100.186 350.552 101.623 C350.552 103.384 351.829 104.503 353.423 104.503 L366.018 104.503 C367.772 104.503 368.888 103.862 369.205 101.785 L372.395 80.669 L387.705 80.669 L390.892 101.785 C391.208 103.862 392.327 104.503 394.082 104.503 L406.677 104.503 L406.671 104.497 C408.265 104.497 409.542 103.377 409.542 101.617 C409.542 100.18 408.909 97.623 408.587 95.7 L390.725 4.839 M374.31 67.07 L377.497 46.751 C378.136 43.074 379.091 31.397 379.091 30.115 C379.091 28.834 379.407 28.355 380.046 28.355 C380.684 28.355 381 28.84 381 30.115 C381 31.391 382.28 43.074 382.758 46.751 L385.79 67.07 L374.31 67.07 M452.928 5 L452.928 15.24 C452.928 17.001 451.651 18.282 449.896 18.282 L449.896 18.277 L437.301 18.277 L437.301 101.461 C437.301 103.222 436.021 104.503 434.266 104.503 L420.233 104.503 C418.479 104.503 417.201 103.222 417.201 101.461 L417.201 18.277 L404.603 18.277 C402.849 18.277 401.572 16.995 401.572 15.234 L401.572 5 C401.572 3.24 402.849 1.958 404.603 1.958 L449.896 1.958 C451.651 1.958 452.928 3.24 452.928 5" fill="#0a0a0a" fill-rule="nonzero"/>
</svg>
