<svg xmlns="http://www.w3.org/2000/svg" viewBox="0 0 582.953 113.438" role="img" aria-label="Snapchat">
  <!-- Official Snapchat primary lockup extracted from Snap brand guidelines PDF and not redrawn. -->
  <path d="M581.194 80.514 C580.575 78.939 579.335 77.568 577.751 76.883 C577.473 76.746 577.198 76.608 576.991 76.471 C576.579 76.265 576.095 76.059 575.614 75.787 C571.342 73.662 567.69 70.513 564.865 66.676 C564.175 65.648 563.556 64.551 563.003 63.457 C562.797 63.045 562.797 62.567 562.934 62.155 C563.072 61.88 563.281 61.677 563.556 61.539 C564.312 60.992 565.14 60.511 565.69 60.102 C566.656 59.486 567.484 58.936 567.965 58.596 C569.618 57.499 570.996 56.062 572.03 54.35 C573.201 52.156 573.339 49.553 572.445 47.226 C571.136 43.939 567.896 41.745 564.312 41.883 C563.556 41.883 562.728 41.952 561.972 42.158 L561.35 42.295 C561.419 39.968 561.35 37.637 561.144 35.378 C560.869 29.488 558.526 23.801 554.53 19.487 C552.599 17.362 550.327 15.515 547.777 14.075 C538.198 8.87 526.553 8.87 516.976 14.075 C514.427 15.512 512.152 17.293 510.224 19.487 C506.366 23.87 504.022 29.488 503.747 35.378 C503.538 37.705 503.469 40.036 503.538 42.295 L502.919 42.158 C502.16 41.952 501.335 41.883 500.576 41.883 C496.992 41.745 493.755 43.87 492.446 47.226 C491.549 49.553 491.687 52.156 492.858 54.35 C493.824 56.062 495.202 57.568 496.923 58.596 C497.408 58.939 498.233 59.417 499.198 60.102 C499.748 60.445 500.507 60.923 501.266 61.47 C501.541 61.677 501.748 61.883 501.954 62.155 C502.16 62.567 502.091 63.045 501.885 63.457 C501.404 64.554 500.782 65.651 500.095 66.607 C497.27 70.444 493.686 73.456 489.553 75.58 C487.209 76.88 484.729 77.636 483.694 80.442 C482.935 82.77 483.557 85.373 485.416 87.019 C486.175 87.772 487.003 88.388 487.897 88.938 C489.828 89.966 491.893 90.787 494.03 91.403 C494.443 91.54 494.927 91.678 495.271 91.95 C495.961 92.565 495.889 93.524 496.855 94.896 C497.339 95.58 497.958 96.268 498.648 96.746 C500.713 97.911 503.057 98.458 505.4 98.32 C507.95 98.32 510.431 98.664 512.843 99.417 C514.152 99.964 515.461 100.583 516.63 101.404 C526.141 107.913 538.682 107.913 548.19 101.404 C549.362 100.651 550.602 99.967 551.911 99.417 C554.323 98.664 556.873 98.32 559.351 98.32 C561.694 98.458 564.037 97.908 566.106 96.746 C566.931 96.13 567.69 95.377 568.171 94.487 C568.862 93.321 568.862 92.5 569.48 91.953 C569.827 91.747 570.239 91.54 570.652 91.406 C572.858 90.859 574.926 90.037 576.854 88.941 C577.819 88.394 578.713 87.707 579.472 86.954 C581.403 85.241 581.953 82.776 581.194 80.514 M574.304 84.145 C570.102 86.472 567.346 86.201 565.14 87.569 C563.281 88.735 564.381 91.268 563.072 92.228 C561.419 93.324 556.526 92.159 550.255 94.215 C545.087 95.927 541.782 100.789 532.411 100.789 C523.041 100.789 519.87 95.927 514.564 94.215 C508.293 92.159 503.4 93.393 501.748 92.228 C500.438 91.337 501.473 88.735 499.679 87.569 C497.545 86.201 494.721 86.404 490.515 84.145 C487.828 82.707 489.343 81.748 490.24 81.336 C505.469 74.006 507.881 62.704 508.018 61.883 C508.362 60.855 508.018 59.689 507.19 59.005 C506.088 58.046 501.266 55.103 499.888 54.143 C497.683 52.637 496.717 51.06 497.408 49.213 C497.889 48.047 499.129 47.294 500.438 47.432 C500.851 47.432 501.266 47.501 501.679 47.569 C504.091 48.116 506.434 49.282 507.812 49.625 C507.95 49.694 508.156 49.694 508.293 49.694 C509.053 49.694 509.259 49.35 509.259 48.529 C508.915 44.351 508.915 40.105 509.121 35.924 C509.259 31.197 511.187 26.61 514.427 23.117 C524.278 13.253 540.335 13.184 550.255 22.98 L550.396 23.117 C553.633 26.61 555.495 31.132 555.701 35.924 C555.976 40.102 555.907 44.348 555.564 48.529 C555.495 49.419 555.77 49.694 556.526 49.694 C556.732 49.694 556.873 49.694 557.01 49.625 C558.388 49.282 560.732 48.119 563.141 47.569 C563.556 47.501 563.969 47.432 564.312 47.432 C565.621 47.294 566.793 48.047 567.346 49.213 C568.034 51.131 567.068 52.637 564.865 54.143 C563.556 55.034 558.732 58.046 557.629 59.005 C556.804 59.689 556.457 60.786 556.804 61.883 C556.942 62.704 559.351 74.006 574.579 81.336 C575.476 81.814 576.991 82.707 574.304 84.145" fill="#fef9e7" fill-rule="nonzero"/>
  <path d="M25.833 112.429 C8.314 112.429 1 101.849 1 78.3 C1 75.053 3.043 74.032 5.424 74.032 L16.651 74.032 C19.031 74.032 19.884 75.4 19.713 78.809 C19.203 89.732 20.566 95.194 26.177 95.194 C32.47 95.194 33.495 91.273 33.495 80.521 C33.495 71.648 29.07 66.014 20.734 62.093 C8.318 56.288 1.172 46.046 1.337 30.689 C1.509 8.677 12.054 1 27.877 1 C45.058 1 52.545 10.555 52.545 33.079 C52.545 36.325 50.164 37.347 48.12 37.347 L36.894 37.347 C34.513 37.347 33.495 35.979 33.66 32.907 C34.341 22.84 33.323 18.235 27.533 18.235 C22.262 18.235 20.559 21.481 20.559 31.548 C20.559 39.4 24.131 44.862 31.614 48.27 C44.374 54.069 52.704 64.311 52.704 80.012 C52.704 103.218 44.03 112.438 25.827 112.438 L25.833 112.432 L25.833 112.429" fill="#fef9e7" fill-rule="nonzero"/>
  <path d="M113.272 111.407 L100.002 111.407 C98.131 111.407 97.112 110.213 96.768 108.845 L84.008 63.452 C81.627 55.091 80.265 49.801 80.099 48.261 C79.927 46.892 79.762 46.727 79.246 46.727 C78.731 46.727 78.565 47.239 78.737 48.433 C78.909 50.823 79.246 57.987 79.246 63.449 L79.246 108.157 C79.246 110.035 77.884 111.404 76.012 111.404 L63.086 111.404 C61.215 111.404 59.853 110.035 59.853 108.157 L59.853 5.268 C59.853 3.39 61.215 2.021 63.086 2.021 L76.356 2.021 C78.228 2.021 79.246 3.215 79.59 4.584 L92.35 49.976 C94.731 58.337 96.094 63.627 96.259 65.167 C96.431 66.536 96.597 66.701 97.112 66.701 C97.628 66.701 97.793 66.189 97.621 64.996 C97.449 62.605 97.112 55.441 97.112 49.979 L97.112 5.268 C97.112 3.39 98.474 2.021 100.346 2.021 L113.272 2.021 C115.143 2.021 116.506 3.39 116.506 5.268 L116.506 108.163 C116.506 110.041 115.143 111.41 113.272 111.41 L113.272 111.407" fill="#fef9e7" fill-rule="nonzero"/>
  <path d="M181.655 111.404 L168.22 111.404 C166.348 111.404 165.158 110.719 164.82 108.504 L161.421 85.98 L145.086 85.98 L141.687 108.504 C141.349 110.719 140.159 111.404 138.287 111.404 L124.852 111.404 C123.152 111.404 121.79 110.21 121.79 108.332 C121.79 106.798 122.471 104.064 122.808 102.021 L141.855 5.093 C142.193 3.043 143.383 2.021 145.255 2.021 L161.246 2.021 C163.117 2.021 164.308 3.043 164.645 5.093 L183.698 102.014 C184.042 104.064 184.717 106.792 184.717 108.326 C184.717 110.204 183.355 111.397 181.655 111.397 L181.661 111.404 L181.655 111.404 M156.14 49.801 C155.631 45.88 154.269 33.416 154.269 32.054 C154.269 30.692 153.931 30.176 153.25 30.176 C152.569 30.176 152.232 30.686 152.232 32.054 C152.232 33.423 151.213 45.877 150.532 49.801 L147.133 71.476 L159.377 71.476 L156.144 49.801 L156.14 49.801" fill="#fef9e7" fill-rule="nonzero"/>
  <path d="M221.452 71.304 L211.416 71.304 L211.416 108.16 C211.416 110.038 210.054 111.407 208.182 111.407 L193.213 111.407 C191.341 111.407 189.979 110.038 189.979 108.16 L189.979 5.268 C189.979 3.39 191.341 2.021 193.213 2.021 L220.774 2.021 C239.827 2.021 246.626 16.866 246.626 36.663 C246.626 56.459 239.48 71.304 221.449 71.304 L221.455 71.304 L221.452 71.304 M215.668 17.378 L211.416 17.378 L211.416 55.941 L216.353 55.941 C223.161 55.941 225.198 50.479 225.198 36.656 C225.198 22.834 223.326 17.372 215.671 17.372 L215.671 17.378 L215.668 17.378" fill="#fef9e7" fill-rule="nonzero"/>
  <path d="M280.304 112.429 C259.042 112.429 250.706 96.387 250.706 56.631 C250.706 16.875 259.042 1 280.304 1 C294.93 1 305.309 8.852 305.309 34.448 C305.309 37.519 303.1 38.544 301.057 38.544 L289.487 38.544 C287.103 38.544 286.25 36.666 286.422 33.426 C287.103 22.503 285.403 18.069 280.298 18.069 C272.98 18.069 272.643 26.258 272.643 56.631 C272.643 87.005 272.98 95.366 280.298 95.366 C285.397 95.366 287.103 90.588 286.422 79.153 C286.25 75.906 287.103 74.035 289.487 74.035 L301.057 74.035 C303.266 74.035 305.309 75.228 305.309 78.128 C305.309 104.236 294.936 112.425 280.304 112.425 L280.304 112.429" fill="#fef9e7" fill-rule="nonzero"/>
  <path d="M365.356 111.407 L350.387 111.407 C348.515 111.407 347.153 110.038 347.153 108.16 L347.153 62.43 L333.371 62.43 L333.371 108.16 C333.371 110.038 332.009 111.407 330.137 111.407 L315.168 111.407 C313.293 111.407 311.931 110.038 311.931 108.16 L311.931 5.268 C311.931 3.39 313.293 2.021 315.168 2.021 L330.137 2.021 C332.009 2.021 333.371 3.39 333.371 5.268 L333.371 45.024 L347.153 45.024 L347.153 5.268 C347.153 3.39 348.515 2.021 350.387 2.021 L365.356 2.021 C367.228 2.021 368.593 3.39 368.593 5.268 L368.593 108.163 C368.593 110.041 367.228 111.41 365.356 111.41 L365.356 111.407" fill="#fef9e7" fill-rule="nonzero"/>
  <path d="M433.735 111.404 L420.299 111.404 C418.428 111.404 417.234 110.719 416.897 108.504 L413.497 85.98 L397.166 85.98 L393.763 108.504 C393.426 110.719 392.235 111.404 390.364 111.404 L376.928 111.404 C375.229 111.404 373.866 110.21 373.866 108.332 C373.866 106.798 374.548 104.064 374.885 102.021 L393.929 5.093 C394.266 3.043 395.457 2.021 397.331 2.021 L413.319 2.021 C415.191 2.021 416.381 3.043 416.719 5.093 L435.772 102.014 C436.116 104.064 436.791 106.792 436.791 108.326 C436.791 110.204 435.428 111.397 433.729 111.397 L433.735 111.404 M408.22 49.801 C407.711 45.88 406.345 33.416 406.345 32.054 C406.345 30.692 406.008 30.176 405.327 30.176 C404.646 30.176 404.308 30.686 404.308 32.054 C404.308 33.423 403.29 45.877 402.609 49.801 L399.209 71.476 L411.454 71.476 L408.22 49.801" fill="#fef9e7" fill-rule="nonzero"/>
  <path d="M479.837 19.431 L466.402 19.431 L466.402 108.163 C466.402 110.041 465.036 111.41 463.165 111.41 L448.195 111.41 C446.324 111.41 444.962 110.041 444.962 108.163 L444.962 19.431 L431.523 19.431 C429.652 19.431 428.289 18.063 428.289 16.185 L428.289 5.268 C428.289 3.39 429.652 2.021 431.523 2.021 L479.837 2.021 C481.709 2.021 483.071 3.39 483.071 5.268 L483.071 16.191 C483.071 18.069 481.709 19.437 479.837 19.437 L479.837 19.431" fill="#fef9e7" fill-rule="nonzero"/>
</svg>
