<?xml version="1.0" encoding="utf-8"?>
<svg xmlns="http://www.w3.org/2000/svg" width="430" height="76" viewBox="0 0 430 76" fill="none">
<path d="M0 36.6938H36.2609V0.432861C16.2344 0.432861 0 16.6672 0 36.6938Z" fill="#0a0a0a"/>
<path d="M56.729 36.6896C66.741 36.6896 74.8573 28.5733 74.8573 18.5612C74.8573 8.54921 66.741 0.432861 56.729 0.432861C46.7169 0.432861 38.6006 8.54921 38.6006 18.5612C38.6006 28.5733 46.7169 36.6896 56.729 36.6896Z" fill="#0a0a0a"/>
<path d="M18.1284 75.2928C28.1404 75.2928 36.2568 67.1764 36.2568 57.1644C36.2568 47.1524 28.1404 39.036 18.1284 39.036C8.11635 39.036 0 47.1524 0 57.1644C0 67.1764 8.11635 75.2928 18.1284 75.2928Z" fill="#0a0a0a"/>
<path d="M38.6006 75.2941C58.6271 75.2941 74.8615 59.0598 74.8615 39.0332H38.6006V75.2941Z" fill="#0a0a0a"/>
<path d="M116.978 33.6763C109.675 32.4086 105.198 31.4081 105.198 26.943C105.198 22.9378 108.394 20.5483 113.751 20.5483C119.107 20.5483 122.913 23.64 123.43 28.2418L123.461 28.5184H131.534L131.519 28.1921C131.107 19.5323 123.801 13.4856 113.751 13.4856C103.7 13.4856 96.976 19.2402 96.976 27.4774C96.976 36.8737 104.282 39.4309 112.176 40.7981C119.562 42.1342 124.089 43.1876 124.089 47.7956C124.089 51.8629 120.583 54.3922 114.942 54.3922C108.728 54.3922 104.464 50.9339 104.075 45.5832L104.053 45.3005L95.9766 45.1575L95.9828 45.4807C96.1901 55.0354 103.784 61.4549 114.874 61.4549C124.977 61.4549 132.311 55.3772 132.311 47.0032C132.379 37.7561 124.98 35.1336 116.975 33.6795L116.978 33.6763Z" fill="#0a0a0a"/>
<path d="M196.052 43.6132C196.052 50.4864 192.905 54.591 187.632 54.591C182.359 54.591 180.072 51.2756 180.072 44.7411V26.4333H172.312V45.4713C172.312 51.0333 173.679 55.2249 176.378 57.9344C178.701 60.2679 181.932 61.4549 185.979 61.4549C190.277 61.4549 193.641 60.038 196.24 57.1265L196.964 61.0572H203.812V26.4333H196.052V43.6101V43.6132Z" fill="#0a0a0a"/>
<path d="M225.761 26.0358C221.215 26.0358 217.721 27.493 215.104 30.4853L214.383 26.4335H207.597V61.0542H215.357V43.6102C215.357 36.8613 218.628 32.8313 224.108 32.8313C229.257 32.8313 231.866 36.0566 231.866 42.4139V61.0511H239.691V42.0131C239.691 28.1083 230.962 26.0295 225.761 26.0295V26.0358Z" fill="#0a0a0a"/>
<path d="M289.229 14.0294H281.403V51.515C281.403 58.0246 284.445 61.0573 290.971 61.0573H300.579V54.1282H292.429C290.04 54.1282 289.232 53.2861 289.232 50.7879V33.3688H300.579V26.4397H289.232V14.0294H289.229Z" fill="#0a0a0a"/>
<path d="M324.289 26.4333H322.392C317.88 26.4333 314.743 27.8906 312.586 31.0072L311.877 26.4333H304.955V61.0541H312.716V43.6784C312.716 35.0497 317.784 33.7633 320.804 33.7633H324.289V26.4365V26.4333Z" fill="#0a0a0a"/>
<path d="M429.466 26.4582H419.911L406.326 42.4138V13.9517H398.562V61.0572H406.326V45.0985L419.911 61.0572H429.466L414.802 43.7562L429.466 26.4582Z" fill="#0a0a0a"/>
<path d="M152.118 26.1134C142.2 26.1134 134.452 33.6733 134.452 43.7935C134.452 53.9137 142.006 61.4084 152.118 61.4084C162.23 61.4084 169.917 53.7832 169.917 43.7283C169.917 33.6733 162.363 26.1134 152.118 26.1134ZM152.186 54.1157C146.539 54.1157 142.398 49.7097 142.398 43.7966C142.398 37.8836 146.471 33.4123 152.118 33.4123C157.765 33.4123 161.967 37.8805 161.967 43.7966C161.967 49.7128 157.83 54.1157 152.183 54.1157H152.186Z" fill="#0a0a0a"/>
<path d="M269.417 28.9378C266.728 27.1449 263.417 26.1133 259.657 26.1133C249.74 26.1133 241.991 33.6732 241.991 43.7935C241.991 53.9137 249.545 61.4083 259.657 61.4083C263.624 61.4083 267.121 60.2307 269.909 58.1954L270.388 61.0541H277.174V13.9517H269.414V28.9378H269.417ZM259.725 54.1157C254.078 54.1157 249.938 49.7096 249.938 43.7966C249.938 37.8835 254.01 33.4122 259.657 33.4122C265.304 33.4122 269.506 37.8804 269.506 43.7966C269.506 49.7127 265.369 54.1157 259.722 54.1157H259.725Z" fill="#0a0a0a"/>
<path d="M378.997 33.316C383.156 33.316 386.458 35.8919 387.708 39.7231H396.09C394.571 31.5324 387.838 25.9829 379.062 25.9829C369.095 25.9829 361.307 33.5801 361.307 43.7562C361.307 53.9324 368.897 61.4612 379.062 61.4612C387.643 61.4612 394.506 55.9117 396.025 47.6527H387.708C386.52 51.4839 383.221 54.1282 379.059 54.1282C373.316 54.1282 369.29 49.7004 369.29 43.7562C369.29 37.7438 373.254 33.316 378.994 33.316H378.997Z" fill="#0a0a0a"/>
<path d="M351.256 29.2951C348.496 27.3252 345.039 26.1848 341.085 26.1848C331.17 26.1848 323.422 33.7447 323.422 43.8618C323.422 53.9789 330.972 61.4736 341.085 61.4736C345.017 61.4736 348.483 60.3177 351.259 58.3166L351.68 61.0541H358.537V26.4334H351.751L351.256 29.292V29.2951ZM341.153 54.1809C335.505 54.1809 331.368 49.778 331.368 43.8618C331.368 37.9457 335.44 33.4806 341.085 33.4806C346.729 33.4806 350.934 37.9488 350.934 43.8618C350.934 49.7749 346.8 54.1809 341.153 54.1809Z" fill="#0a0a0a"/>
</svg>