<?xml version="1.0" encoding="utf-8"?>
<svg xmlns="http://www.w3.org/2000/svg" width="430" height="76" viewBox="0 0 430 76" fill="none">
<path d="M0 37.1247H36.2609V0.86377C16.2344 0.86377 0 17.0981 0 37.1247Z" fill="#fef9e7"/>
<path d="M56.729 37.1205C66.741 37.1205 74.8573 29.0042 74.8573 18.9922C74.8573 8.98012 66.741 0.86377 56.729 0.86377C46.7169 0.86377 38.6006 8.98012 38.6006 18.9922C38.6006 29.0042 46.7169 37.1205 56.729 37.1205Z" fill="#fef9e7"/>
<path d="M18.1284 75.7236C28.1404 75.7236 36.2568 67.6072 36.2568 57.5952C36.2568 47.5831 28.1404 39.4668 18.1284 39.4668C8.11635 39.4668 0 47.5831 0 57.5952C0 67.6072 8.11635 75.7236 18.1284 75.7236Z" fill="#fef9e7"/>
<path d="M38.6006 75.7248C58.6271 75.7248 74.8615 59.4904 74.8615 39.4639H38.6006V75.7248Z" fill="#fef9e7"/>
<path d="M116.978 34.1073C109.675 32.8395 105.198 31.839 105.198 27.3739C105.198 23.3687 108.394 20.9792 113.751 20.9792C119.107 20.9792 122.913 24.0709 123.43 28.6727L123.461 28.9493H131.534L131.519 28.623C131.107 19.9632 123.801 13.9165 113.751 13.9165C103.7 13.9165 96.976 19.6711 96.976 27.9083C96.976 37.3046 104.282 39.8618 112.176 41.229C119.562 42.5651 124.089 43.6185 124.089 48.2265C124.089 52.2938 120.583 54.8231 114.942 54.8231C108.728 54.8231 104.464 51.3648 104.075 46.0141L104.053 45.7314L95.9766 45.5885L95.9828 45.9116C96.1901 55.4663 103.784 61.8858 114.874 61.8858C124.977 61.8858 132.311 55.8081 132.311 47.4341C132.379 38.187 124.98 35.5645 116.975 34.1104L116.978 34.1073Z" fill="#fef9e7"/>
<path d="M196.052 44.0441C196.052 50.9173 192.905 55.0219 187.632 55.0219C182.359 55.0219 180.072 51.7065 180.072 45.172V26.8643H172.312V45.9022C172.312 51.4642 173.679 55.6558 176.378 58.3653C178.701 60.6988 181.932 61.8858 185.979 61.8858C190.277 61.8858 193.641 60.4689 196.24 57.5574L196.964 61.4881H203.812V26.8643H196.052V44.041V44.0441Z" fill="#fef9e7"/>
<path d="M225.761 26.4667C221.215 26.4667 217.721 27.924 215.104 30.9162L214.383 26.8644H207.597V61.4851H215.357V44.0411C215.357 37.2922 218.628 33.2622 224.108 33.2622C229.257 33.2622 231.866 36.4875 231.866 42.8449V61.482H239.691V42.444C239.691 28.5392 230.962 26.4604 225.761 26.4604V26.4667Z" fill="#fef9e7"/>
<path d="M289.229 14.46H281.403V51.9455C281.403 58.4552 284.445 61.4878 290.971 61.4878H300.579V54.5587H292.429C290.04 54.5587 289.232 53.7166 289.232 51.2184V33.7993H300.579V26.8702H289.232V14.46H289.229Z" fill="#fef9e7"/>
<path d="M324.289 26.8643H322.392C317.88 26.8643 314.743 28.3215 312.586 31.4381L311.877 26.8643H304.955V61.485H312.716V44.1094C312.716 35.4806 317.784 34.1942 320.804 34.1942H324.289V26.8674V26.8643Z" fill="#fef9e7"/>
<path d="M429.466 26.8889H419.911L406.326 42.8445V14.3823H398.562V61.4879H406.326V45.5291L419.911 61.4879H429.466L414.802 44.1868L429.466 26.8889Z" fill="#fef9e7"/>
<path d="M152.118 26.5439C142.2 26.5439 134.452 34.1038 134.452 44.2241C134.452 54.3443 142.006 61.8389 152.118 61.8389C162.23 61.8389 169.917 54.2138 169.917 44.1588C169.917 34.1038 162.363 26.5439 152.118 26.5439ZM152.186 54.5463C146.539 54.5463 142.398 50.1402 142.398 44.2272C142.398 38.3141 146.471 33.8428 152.118 33.8428C157.765 33.8428 161.967 38.311 161.967 44.2272C161.967 50.1433 157.83 54.5463 152.183 54.5463H152.186Z" fill="#fef9e7"/>
<path d="M269.417 29.3685C266.728 27.5756 263.417 26.544 259.657 26.544C249.74 26.544 241.991 34.1039 241.991 44.2241C241.991 54.3443 249.545 61.839 259.657 61.839C263.624 61.839 267.121 60.6613 269.909 58.6261L270.388 61.4848H277.174V14.3823H269.414V29.3685H269.417ZM259.725 54.5463C254.078 54.5463 249.938 50.1403 249.938 44.2272C249.938 38.3142 254.01 33.8429 259.657 33.8429C265.304 33.8429 269.506 38.3111 269.506 44.2272C269.506 50.1434 265.369 54.5463 259.722 54.5463H259.725Z" fill="#fef9e7"/>
<path d="M378.997 33.7466C383.156 33.7466 386.458 36.3225 387.708 40.1537H396.09C394.571 31.9631 387.838 26.4136 379.062 26.4136C369.095 26.4136 361.307 34.0107 361.307 44.1869C361.307 54.3631 368.897 61.8919 379.062 61.8919C387.643 61.8919 394.506 56.3424 396.025 48.0834H387.708C386.52 51.9146 383.221 54.5588 379.059 54.5588C373.316 54.5588 369.29 50.131 369.29 44.1869C369.29 38.1744 373.254 33.7466 378.994 33.7466H378.997Z" fill="#fef9e7"/>
<path d="M351.256 29.7261C348.496 27.7561 345.039 26.6157 341.085 26.6157C331.17 26.6157 323.422 34.1756 323.422 44.2927C323.422 54.4099 330.972 61.9045 341.085 61.9045C345.017 61.9045 348.483 60.7486 351.259 58.7475L351.68 61.485H358.537V26.8643H351.751L351.256 29.7229V29.7261ZM341.153 54.6118C335.505 54.6118 331.368 50.2089 331.368 44.2927C331.368 38.3766 335.44 33.9115 341.085 33.9115C346.729 33.9115 350.934 38.3797 350.934 44.2927C350.934 50.2058 346.8 54.6118 341.153 54.6118Z" fill="#fef9e7"/>
</svg>