<svg xmlns="http://www.w3.org/2000/svg" xmlns:xlink="http://www.w3.org/1999/xlink" zoomAndPan="magnify" preserveAspectRatio="xMidYMid meet" version="1.2" viewBox="0.19 0.06 294.65 74.93"><defs><clipPath id="b2cdfeb53c"><path d="M 0 0.0625 L 295 0.0625 L 295 74.9375 L 0 74.9375 Z M 0 0.0625 "/></clipPath><linearGradient id="anghamiGradient" x1="0%" y1="0%" x2="100%" y2="100%"><stop offset="0%" style="stop-color:#ffffff;stop-opacity:1"/><stop offset="30%" style="stop-color:#f8f8f8;stop-opacity:1"/><stop offset="70%" style="stop-color:#e8e8e8;stop-opacity:1"/><stop offset="100%" style="stop-color:#d0d0d0;stop-opacity:1"/></linearGradient><linearGradient id="anghamiCircleGradient" x1="0%" y1="0%" x2="100%" y2="100%"><stop offset="0%" style="stop-color:#ffffff;stop-opacity:1"/><stop offset="25%" style="stop-color:#f5f5f5;stop-opacity:1"/><stop offset="50%" style="stop-color:#e0e0e0;stop-opacity:1"/><stop offset="75%" style="stop-color:#d0d0d0;stop-opacity:1"/><stop offset="100%" style="stop-color:#c0c0c0;stop-opacity:1"/></linearGradient><filter id="anghamiShadow" x="-50%" y="-50%" width="200%" height="200%"><feDropShadow dx="0" dy="2" stdDeviation="2" flood-color="#000000" flood-opacity="0.25"/></filter><filter id="anghamiTextShadow" x="-50%" y="-50%" width="200%" height="200%"><feDropShadow dx="0" dy="1" stdDeviation="1" flood-color="#000000" flood-opacity="0.15"/></filter><filter id="anghamiCircleShadow" x="-50%" y="-50%" width="200%" height="200%"><feDropShadow dx="0" dy="3" stdDeviation="3" flood-color="#000000" flood-opacity="0.3"/></filter></defs><g id="14c501d12a"><g clip-rule="nonzero" clip-path="url(#b2cdfeb53c)"><path style=" stroke:none;fill-rule:nonzero;fill:url(#anghamiGradient);fill-opacity:1;filter:url(#anghamiTextShadow);" d="M 162.785156 56.9375 C 163.191406 56.9375 163.59375 56.894531 163.992188 56.816406 C 164.390625 56.734375 164.777344 56.617188 165.152344 56.460938 C 165.527344 56.300781 165.882812 56.109375 166.21875 55.882812 C 166.554688 55.65625 166.867188 55.398438 167.15625 55.113281 C 167.441406 54.824219 167.699219 54.511719 167.921875 54.171875 C 168.148438 53.832031 168.335938 53.476562 168.492188 53.101562 C 168.648438 52.726562 168.765625 52.339844 168.84375 51.9375 C 168.921875 51.539062 168.960938 51.136719 168.960938 50.730469 C 168.484375 50.957031 167.996094 51.15625 167.496094 51.328125 C 166.996094 51.5 166.492188 51.644531 165.976562 51.765625 C 165.460938 51.882812 164.945312 51.972656 164.417969 52.035156 C 163.894531 52.097656 163.371094 52.132812 162.84375 52.136719 C 162.316406 52.144531 161.789062 52.121094 161.261719 52.070312 C 160.738281 52.019531 160.21875 51.941406 159.699219 51.832031 C 159.183594 51.726562 158.675781 51.59375 158.171875 51.429688 C 157.667969 51.269531 157.175781 51.082031 156.695312 50.867188 C 156.214844 50.652344 155.742188 50.414062 155.289062 50.148438 C 154.832031 49.882812 154.390625 49.597656 153.964844 49.285156 C 153.539062 48.972656 153.132812 48.636719 152.742188 48.28125 C 152.351562 47.925781 151.984375 47.550781 151.632812 47.15625 C 151.285156 46.757812 150.957031 46.34375 150.652344 45.914062 C 150.347656 45.484375 150.066406 45.039062 149.8125 44.578125 C 149.554688 44.117188 149.324219 43.644531 149.117188 43.15625 C 148.910156 42.671875 148.730469 42.175781 148.578125 41.671875 C 148.425781 41.167969 148.300781 40.65625 148.203125 40.136719 C 148.105469 39.617188 148.035156 39.09375 147.992188 38.570312 C 147.953125 38.042969 147.9375 37.515625 147.953125 36.988281 C 147.96875 36.460938 148.011719 35.9375 148.082031 35.414062 C 148.15625 34.890625 148.253906 34.375 148.382812 33.863281 C 148.507812 33.347656 148.664062 32.84375 148.84375 32.351562 C 149.023438 31.855469 149.230469 31.371094 149.464844 30.898438 C 149.699219 30.421875 149.957031 29.964844 150.238281 29.519531 C 150.519531 29.074219 150.828125 28.644531 151.15625 28.230469 C 151.484375 27.816406 151.832031 27.425781 152.203125 27.046875 C 152.574219 26.671875 152.964844 26.320312 153.375 25.984375 C 153.785156 25.652344 154.210938 25.34375 154.652344 25.054688 C 155.09375 24.765625 155.550781 24.503906 156.023438 24.265625 C 156.492188 24.027344 156.976562 23.816406 157.46875 23.628906 C 157.960938 23.441406 158.464844 23.28125 158.972656 23.148438 C 159.484375 23.015625 160 22.910156 160.523438 22.835938 C 161.046875 22.757812 161.570312 22.707031 162.097656 22.6875 C 162.625 22.667969 163.152344 22.675781 163.675781 22.710938 C 164.203125 22.746094 164.726562 22.808594 165.246094 22.902344 C 165.765625 22.992188 166.28125 23.113281 166.785156 23.261719 C 167.292969 23.40625 167.789062 23.582031 168.277344 23.78125 C 168.765625 23.980469 169.242188 24.207031 169.707031 24.460938 C 170.167969 24.710938 170.617188 24.988281 171.050781 25.289062 C 171.488281 25.585938 171.902344 25.910156 172.304688 26.253906 C 172.703125 26.597656 173.082031 26.964844 173.441406 27.351562 C 173.800781 27.734375 174.140625 28.140625 174.457031 28.5625 C 174.773438 28.984375 175.066406 29.421875 175.339844 29.875 C 175.609375 30.328125 175.851562 30.792969 176.074219 31.273438 C 176.292969 31.753906 176.484375 32.242188 176.652344 32.742188 C 176.820312 33.246094 176.960938 33.753906 177.070312 34.269531 C 177.183594 34.785156 177.269531 35.304688 177.324219 35.828125 C 177.382812 36.351562 177.410156 36.878906 177.410156 37.40625 L 177.410156 50.753906 C 177.410156 51.71875 177.316406 52.671875 177.132812 53.617188 C 176.945312 54.5625 176.667969 55.480469 176.300781 56.371094 C 175.933594 57.261719 175.480469 58.109375 174.949219 58.914062 C 174.414062 59.714844 173.808594 60.457031 173.128906 61.140625 C 172.449219 61.824219 171.707031 62.433594 170.90625 62.972656 C 170.109375 63.507812 169.265625 63.964844 168.375 64.335938 C 167.484375 64.707031 166.566406 64.988281 165.625 65.179688 C 164.679688 65.371094 163.726562 65.464844 162.761719 65.46875 Z M 156.601562 37.382812 C 156.601562 37.789062 156.644531 38.191406 156.726562 38.585938 C 156.804688 38.984375 156.925781 39.367188 157.082031 39.742188 C 157.238281 40.113281 157.429688 40.46875 157.660156 40.804688 C 157.886719 41.140625 158.140625 41.449219 158.429688 41.734375 C 158.71875 42.019531 159.03125 42.273438 159.367188 42.496094 C 159.707031 42.722656 160.0625 42.910156 160.4375 43.0625 C 160.8125 43.214844 161.199219 43.332031 161.59375 43.410156 C 161.992188 43.488281 162.394531 43.523438 162.796875 43.523438 C 163.203125 43.523438 163.605469 43.480469 164 43.402344 C 164.398438 43.320312 164.785156 43.203125 165.15625 43.046875 C 165.53125 42.890625 165.886719 42.699219 166.222656 42.472656 C 166.558594 42.246094 166.867188 41.992188 167.152344 41.703125 C 167.441406 41.417969 167.695312 41.105469 167.917969 40.765625 C 168.144531 40.429688 168.332031 40.074219 168.488281 39.699219 C 168.640625 39.324219 168.757812 38.941406 168.835938 38.542969 C 168.914062 38.144531 168.953125 37.746094 168.953125 37.339844 C 168.953125 36.933594 168.914062 36.535156 168.832031 36.136719 C 168.753906 35.738281 168.636719 35.355469 168.480469 34.980469 C 168.324219 34.605469 168.136719 34.25 167.910156 33.914062 C 167.6875 33.578125 167.429688 33.265625 167.144531 32.980469 C 166.855469 32.691406 166.546875 32.4375 166.210938 32.210938 C 165.871094 31.988281 165.515625 31.796875 165.144531 31.640625 C 164.769531 31.488281 164.382812 31.371094 163.988281 31.289062 C 163.589844 31.210938 163.1875 31.171875 162.785156 31.171875 C 162.375 31.171875 161.972656 31.210938 161.574219 31.292969 C 161.175781 31.375 160.789062 31.492188 160.414062 31.648438 C 160.039062 31.804688 159.683594 32 159.34375 32.226562 C 159.007812 32.453125 158.695312 32.710938 158.40625 33 C 158.121094 33.285156 157.863281 33.601562 157.636719 33.9375 C 157.414062 34.277344 157.222656 34.636719 157.066406 35.011719 C 156.914062 35.386719 156.796875 35.777344 156.71875 36.175781 C 156.636719 36.574219 156.597656 36.976562 156.601562 37.382812 Z M 208.148438 37.382812 C 208.148438 36.421875 208.246094 35.46875 208.433594 34.527344 C 208.621094 33.582031 208.898438 32.667969 209.265625 31.777344 C 209.632812 30.890625 210.085938 30.046875 210.617188 29.246094 C 211.152344 28.445312 211.761719 27.707031 212.441406 27.027344 C 213.121094 26.347656 213.859375 25.738281 214.660156 25.203125 C 215.460938 24.667969 216.304688 24.21875 217.191406 23.851562 C 218.082031 23.484375 218.996094 23.203125 219.941406 23.015625 C 220.882812 22.828125 221.835938 22.734375 222.800781 22.734375 C 223.761719 22.734375 224.714844 22.828125 225.65625 23.015625 C 226.601562 23.203125 227.515625 23.484375 228.40625 23.851562 C 229.292969 24.21875 230.136719 24.667969 230.9375 25.203125 C 231.738281 25.738281 232.476562 26.347656 233.15625 27.027344 C 233.835938 27.707031 234.445312 28.445312 234.980469 29.246094 C 235.511719 30.046875 235.964844 30.890625 236.332031 31.777344 C 236.699219 32.667969 236.976562 33.582031 237.167969 34.527344 C 237.355469 35.46875 237.449219 36.421875 237.449219 37.382812 L 237.449219 51.800781 L 229.003906 51.800781 L 229.003906 37.40625 C 229.003906 37 228.960938 36.601562 228.882812 36.203125 C 228.800781 35.808594 228.683594 35.421875 228.523438 35.046875 C 228.367188 34.675781 228.175781 34.320312 227.949219 33.984375 C 227.722656 33.648438 227.46875 33.335938 227.179688 33.050781 C 226.890625 32.765625 226.578125 32.511719 226.242188 32.289062 C 225.90625 32.066406 225.546875 31.875 225.171875 31.722656 C 224.800781 31.570312 224.414062 31.453125 224.015625 31.375 C 223.617188 31.296875 223.214844 31.257812 222.8125 31.261719 C 222.40625 31.261719 222.003906 31.300781 221.609375 31.382812 C 221.210938 31.460938 220.824219 31.578125 220.453125 31.734375 C 220.078125 31.890625 219.722656 32.082031 219.386719 32.308594 C 219.050781 32.535156 218.738281 32.789062 218.453125 33.078125 C 218.167969 33.363281 217.914062 33.675781 217.6875 34.011719 C 217.464844 34.351562 217.273438 34.707031 217.121094 35.082031 C 216.964844 35.453125 216.847656 35.839844 216.769531 36.238281 C 216.691406 36.636719 216.652344 37.035156 216.652344 37.441406 C 216.652344 37.847656 216.691406 38.246094 216.773438 38.644531 C 216.851562 39.042969 216.96875 39.425781 217.125 39.800781 C 217.277344 40.175781 217.46875 40.53125 217.695312 40.867188 C 217.917969 41.203125 218.175781 41.515625 218.460938 41.804688 C 218.746094 42.089844 219.058594 42.34375 219.394531 42.570312 C 219.730469 42.796875 220.085938 42.984375 220.460938 43.140625 C 220.835938 43.296875 221.222656 43.414062 221.617188 43.492188 C 222.015625 43.574219 222.417969 43.613281 222.820312 43.613281 C 224.214844 43.613281 225.460938 43.183594 226.558594 42.328125 L 226.558594 51.628906 C 225.335938 51.960938 224.089844 52.125 222.820312 52.121094 C 221.859375 52.117188 220.902344 52.019531 219.960938 51.828125 C 219.015625 51.636719 218.097656 51.355469 217.210938 50.984375 C 216.320312 50.613281 215.476562 50.160156 214.679688 49.621094 C 213.878906 49.082031 213.140625 48.472656 212.460938 47.789062 C 211.78125 47.105469 211.171875 46.363281 210.640625 45.5625 C 210.105469 44.761719 209.65625 43.914062 209.289062 43.023438 C 208.921875 42.132812 208.644531 41.214844 208.457031 40.269531 C 208.273438 39.324219 208.179688 38.371094 208.179688 37.40625 Z M 87.960938 37.382812 C 87.960938 36.421875 88.054688 35.46875 88.242188 34.523438 C 88.425781 33.578125 88.703125 32.660156 89.070312 31.773438 C 89.441406 30.882812 89.890625 30.035156 90.425781 29.234375 C 90.957031 28.433594 91.566406 27.695312 92.246094 27.011719 C 92.925781 26.332031 93.667969 25.722656 94.464844 25.1875 C 95.265625 24.652344 96.113281 24.199219 97 23.832031 C 97.890625 23.464844 98.808594 23.183594 99.75 22.996094 C 100.695312 22.808594 101.648438 22.714844 102.613281 22.714844 C 103.574219 22.714844 104.527344 22.808594 105.472656 22.996094 C 106.414062 23.183594 107.332031 23.464844 108.222656 23.832031 C 109.109375 24.199219 109.957031 24.652344 110.757812 25.1875 C 111.554688 25.722656 112.296875 26.332031 112.976562 27.011719 C 113.65625 27.695312 114.265625 28.433594 114.796875 29.234375 C 115.332031 30.035156 115.785156 30.882812 116.152344 31.773438 C 116.519531 32.660156 116.796875 33.578125 116.980469 34.523438 C 117.167969 35.46875 117.261719 36.421875 117.261719 37.382812 L 117.261719 51.800781 L 108.796875 51.800781 L 108.796875 37.40625 C 108.792969 37 108.753906 36.601562 108.671875 36.203125 C 108.589844 35.804688 108.472656 35.421875 108.316406 35.046875 C 108.15625 34.675781 107.964844 34.320312 107.738281 33.984375 C 107.511719 33.648438 107.257812 33.335938 106.96875 33.050781 C 106.679688 32.765625 106.367188 32.511719 106.03125 32.289062 C 105.691406 32.0625 105.335938 31.875 104.960938 31.722656 C 104.585938 31.566406 104.199219 31.453125 103.804688 31.375 C 103.40625 31.296875 103.003906 31.257812 102.597656 31.261719 C 102.195312 31.261719 101.792969 31.300781 101.394531 31.382812 C 101 31.460938 100.613281 31.582031 100.238281 31.738281 C 99.867188 31.894531 99.511719 32.082031 99.175781 32.308594 C 98.835938 32.535156 98.527344 32.792969 98.242188 33.078125 C 97.957031 33.367188 97.699219 33.679688 97.476562 34.015625 C 97.25 34.355469 97.0625 34.710938 96.90625 35.085938 C 96.753906 35.457031 96.636719 35.84375 96.558594 36.242188 C 96.480469 36.640625 96.441406 37.042969 96.441406 37.445312 C 96.441406 37.851562 96.484375 38.253906 96.5625 38.648438 C 96.640625 39.046875 96.761719 39.433594 96.914062 39.808594 C 97.070312 40.179688 97.261719 40.535156 97.488281 40.875 C 97.710938 41.210938 97.96875 41.519531 98.253906 41.808594 C 98.542969 42.09375 98.855469 42.347656 99.191406 42.574219 C 99.527344 42.800781 99.882812 42.988281 100.257812 43.144531 C 100.632812 43.296875 101.019531 43.414062 101.414062 43.496094 C 101.8125 43.574219 102.214844 43.613281 102.617188 43.613281 C 104.011719 43.609375 105.257812 43.183594 106.359375 42.328125 L 106.359375 51.628906 C 105.132812 51.957031 103.886719 52.125 102.617188 52.121094 C 101.65625 52.117188 100.703125 52.019531 99.757812 51.828125 C 98.8125 51.636719 97.894531 51.355469 97.007812 50.984375 C 96.117188 50.613281 95.273438 50.160156 94.472656 49.621094 C 93.675781 49.082031 92.933594 48.472656 92.253906 47.789062 C 91.574219 47.109375 90.96875 46.363281 90.433594 45.5625 C 89.898438 44.761719 89.449219 43.914062 89.082031 43.023438 C 88.714844 42.132812 88.4375 41.214844 88.25 40.269531 C 88.0625 39.324219 87.96875 38.371094 87.96875 37.40625 Z M 273.652344 51.816406 L 273.652344 35.15625 C 273.65625 34.894531 273.628906 34.640625 273.582031 34.382812 C 273.53125 34.128906 273.457031 33.882812 273.355469 33.640625 C 273.257812 33.402344 273.136719 33.171875 272.992188 32.957031 C 272.847656 32.742188 272.683594 32.539062 272.5 32.355469 C 272.316406 32.171875 272.117188 32.007812 271.902344 31.863281 C 271.6875 31.71875 271.460938 31.597656 271.21875 31.5 C 270.980469 31.398438 270.730469 31.324219 270.476562 31.273438 C 270.222656 31.222656 269.964844 31.195312 269.707031 31.195312 C 269.445312 31.195312 269.1875 31.222656 268.933594 31.273438 C 268.679688 31.324219 268.433594 31.398438 268.191406 31.5 C 267.953125 31.597656 267.726562 31.71875 267.507812 31.863281 C 267.292969 32.007812 267.09375 32.171875 266.910156 32.355469 C 266.726562 32.539062 266.5625 32.742188 266.417969 32.957031 C 266.277344 33.171875 266.152344 33.402344 266.054688 33.640625 C 265.957031 33.882812 265.882812 34.128906 265.832031 34.382812 C 265.78125 34.640625 265.757812 34.894531 265.757812 35.15625 L 265.757812 51.839844 L 257.292969 51.839844 L 257.292969 35.15625 C 257.292969 34.632812 257.191406 34.128906 256.992188 33.644531 C 256.792969 33.160156 256.507812 32.734375 256.136719 32.363281 C 255.765625 31.992188 255.339844 31.707031 254.855469 31.507812 C 254.371094 31.308594 253.867188 31.207031 253.34375 31.207031 C 252.820312 31.207031 252.316406 31.308594 251.835938 31.507812 C 251.351562 31.707031 250.921875 31.992188 250.554688 32.363281 C 250.183594 32.734375 249.898438 33.160156 249.699219 33.644531 C 249.496094 34.128906 249.398438 34.632812 249.398438 35.15625 L 249.398438 51.839844 L 240.933594 51.839844 L 240.933594 35.15625 C 240.933594 34.339844 241.011719 33.53125 241.167969 32.726562 C 241.328125 31.925781 241.5625 31.148438 241.875 30.394531 C 242.1875 29.636719 242.566406 28.921875 243.019531 28.242188 C 243.472656 27.5625 243.988281 26.929688 244.566406 26.351562 C 245.140625 25.773438 245.769531 25.257812 246.445312 24.800781 C 247.125 24.34375 247.839844 23.960938 248.59375 23.644531 C 249.347656 23.332031 250.125 23.09375 250.925781 22.929688 C 251.726562 22.769531 252.535156 22.6875 253.351562 22.683594 C 254.859375 22.683594 256.316406 22.949219 257.726562 23.484375 C 259.136719 24.019531 260.40625 24.785156 261.53125 25.785156 C 262.429688 25 263.421875 24.359375 264.503906 23.859375 C 265.585938 23.359375 266.71875 23.023438 267.898438 22.847656 C 269.078125 22.675781 270.257812 22.671875 271.441406 22.839844 C 272.621094 23.007812 273.753906 23.339844 274.839844 23.832031 C 275.925781 24.328125 276.917969 24.964844 277.820312 25.746094 C 278.71875 26.527344 279.492188 27.421875 280.136719 28.425781 C 280.78125 29.429688 281.269531 30.503906 281.601562 31.648438 C 281.933594 32.792969 282.101562 33.964844 282.097656 35.15625 L 282.097656 51.839844 Z M 196.777344 51.816406 L 196.777344 35.15625 C 196.777344 34.632812 196.675781 34.128906 196.476562 33.644531 C 196.277344 33.160156 195.992188 32.734375 195.621094 32.363281 C 195.25 31.992188 194.824219 31.707031 194.339844 31.507812 C 193.855469 31.308594 193.351562 31.207031 192.828125 31.207031 C 192.304688 31.207031 191.800781 31.308594 191.316406 31.507812 C 190.835938 31.707031 190.40625 31.992188 190.035156 32.363281 C 189.667969 32.734375 189.382812 33.160156 189.179688 33.644531 C 188.980469 34.128906 188.878906 34.632812 188.878906 35.15625 L 188.878906 51.839844 L 180.402344 51.839844 L 180.402344 14.636719 L 188.875 14.636719 L 188.875 23.332031 C 190.152344 22.898438 191.46875 22.683594 192.820312 22.683594 C 193.636719 22.6875 194.445312 22.769531 195.246094 22.933594 C 196.046875 23.09375 196.824219 23.332031 197.578125 23.648438 C 198.332031 23.960938 199.046875 24.347656 199.722656 24.804688 C 200.402344 25.257812 201.027344 25.777344 201.605469 26.355469 C 202.179688 26.933594 202.695312 27.5625 203.148438 28.242188 C 203.597656 28.921875 203.980469 29.640625 204.292969 30.394531 C 204.605469 31.148438 204.839844 31.929688 204.996094 32.730469 C 205.15625 33.53125 205.234375 34.339844 205.234375 35.15625 L 205.234375 51.839844 Z M 137.0625 51.816406 L 137.0625 35.15625 C 137.074219 34.890625 137.058594 34.625 137.015625 34.363281 C 136.972656 34.097656 136.90625 33.84375 136.8125 33.59375 C 136.71875 33.34375 136.597656 33.105469 136.457031 32.878906 C 136.316406 32.65625 136.152344 32.445312 135.96875 32.253906 C 135.785156 32.0625 135.582031 31.890625 135.363281 31.738281 C 135.144531 31.585938 134.910156 31.457031 134.667969 31.351562 C 134.421875 31.25 134.167969 31.167969 133.90625 31.117188 C 133.648438 31.0625 133.382812 31.035156 133.117188 31.035156 C 132.851562 31.035156 132.585938 31.0625 132.324219 31.117188 C 132.0625 31.167969 131.8125 31.25 131.566406 31.351562 C 131.320312 31.457031 131.089844 31.585938 130.871094 31.738281 C 130.652344 31.890625 130.449219 32.0625 130.265625 32.253906 C 130.082031 32.445312 129.917969 32.65625 129.773438 32.878906 C 129.632812 33.105469 129.515625 33.34375 129.421875 33.59375 C 129.328125 33.84375 129.257812 34.097656 129.21875 34.363281 C 129.175781 34.625 129.160156 34.890625 129.171875 35.15625 L 129.171875 51.839844 L 120.714844 51.839844 L 120.714844 35.15625 C 120.695312 34.328125 120.757812 33.503906 120.898438 32.691406 C 121.042969 31.875 121.269531 31.082031 121.570312 30.308594 C 121.875 29.539062 122.25 28.804688 122.699219 28.109375 C 123.148438 27.414062 123.664062 26.769531 124.242188 26.175781 C 124.820312 25.582031 125.453125 25.054688 126.136719 24.585938 C 126.820312 24.121094 127.542969 23.726562 128.308594 23.40625 C 129.070312 23.082031 129.859375 22.839844 130.671875 22.675781 C 131.484375 22.511719 132.304688 22.429688 133.132812 22.429688 C 133.960938 22.429688 134.78125 22.511719 135.589844 22.675781 C 136.402344 22.839844 137.191406 23.082031 137.953125 23.40625 C 138.71875 23.726562 139.441406 24.121094 140.125 24.585938 C 140.8125 25.054688 141.441406 25.582031 142.019531 26.175781 C 142.597656 26.769531 143.113281 27.414062 143.5625 28.109375 C 144.011719 28.804688 144.390625 29.539062 144.691406 30.308594 C 144.996094 31.082031 145.21875 31.875 145.363281 32.691406 C 145.507812 33.503906 145.566406 34.328125 145.546875 35.15625 L 145.546875 51.839844 Z M 285.453125 51.816406 L 285.453125 24.089844 L 293.925781 24.089844 L 293.925781 51.839844 Z M 284.59375 16.886719 C 284.59375 16.550781 284.625 16.21875 284.691406 15.890625 C 284.753906 15.5625 284.851562 15.242188 284.980469 14.933594 C 285.109375 14.621094 285.265625 14.328125 285.449219 14.046875 C 285.636719 13.769531 285.847656 13.507812 286.085938 13.273438 C 286.320312 13.035156 286.578125 12.820312 286.855469 12.632812 C 287.136719 12.449219 287.429688 12.289062 287.738281 12.160156 C 288.050781 12.03125 288.367188 11.933594 288.695312 11.867188 C 289.027344 11.800781 289.359375 11.765625 289.695312 11.765625 C 290.03125 11.765625 290.363281 11.796875 290.695312 11.859375 C 291.023438 11.925781 291.347656 12.019531 291.65625 12.148438 C 291.96875 12.277344 292.265625 12.433594 292.546875 12.617188 C 292.824219 12.804688 293.085938 13.015625 293.324219 13.253906 C 293.5625 13.488281 293.777344 13.75 293.964844 14.027344 C 294.152344 14.308594 294.3125 14.601562 294.441406 14.914062 C 294.570312 15.222656 294.671875 15.542969 294.738281 15.875 C 294.804688 16.203125 294.835938 16.535156 294.839844 16.871094 C 294.839844 17.210938 294.808594 17.542969 294.742188 17.875 C 294.679688 18.203125 294.582031 18.523438 294.453125 18.835938 C 294.324219 19.148438 294.167969 19.441406 293.980469 19.722656 C 293.796875 20.003906 293.582031 20.261719 293.347656 20.5 C 293.109375 20.742188 292.851562 20.953125 292.570312 21.140625 C 292.289062 21.328125 291.996094 21.488281 291.683594 21.617188 C 291.375 21.746094 291.054688 21.84375 290.722656 21.910156 C 290.394531 21.976562 290.058594 22.007812 289.722656 22.011719 C 289.386719 22.011719 289.054688 21.976562 288.722656 21.914062 C 288.394531 21.847656 288.074219 21.75 287.761719 21.621094 C 287.449219 21.492188 287.15625 21.335938 286.875 21.148438 C 286.59375 20.960938 286.335938 20.75 286.097656 20.511719 C 285.859375 20.273438 285.644531 20.015625 285.457031 19.734375 C 285.273438 19.457031 285.113281 19.160156 284.984375 18.851562 C 284.855469 18.539062 284.757812 18.21875 284.691406 17.886719 C 284.625 17.558594 284.59375 17.226562 284.59375 16.886719 Z M 0.191406 37.496094 C 0.191406 36.269531 0.25 35.046875 0.371094 33.828125 C 0.492188 32.605469 0.671875 31.394531 0.910156 30.191406 C 1.148438 28.988281 1.445312 27.800781 1.800781 26.628906 C 2.160156 25.457031 2.570312 24.300781 3.039062 23.167969 C 3.507812 22.035156 4.03125 20.929688 4.609375 19.847656 C 5.1875 18.765625 5.820312 17.71875 6.5 16.699219 C 7.179688 15.679688 7.910156 14.695312 8.6875 13.746094 C 9.464844 12.800781 10.289062 11.890625 11.15625 11.023438 C 12.023438 10.15625 12.929688 9.335938 13.878906 8.558594 C 14.824219 7.78125 15.808594 7.050781 16.828125 6.367188 C 17.847656 5.6875 18.898438 5.058594 19.980469 4.480469 C 21.0625 3.902344 22.167969 3.378906 23.300781 2.910156 C 24.433594 2.441406 25.585938 2.027344 26.761719 1.671875 C 27.933594 1.316406 29.121094 1.019531 30.324219 0.777344 C 31.527344 0.539062 32.738281 0.359375 33.957031 0.238281 C 35.179688 0.121094 36.402344 0.0585938 37.628906 0.0585938 C 38.851562 0.0585938 40.078125 0.121094 41.296875 0.238281 C 42.515625 0.359375 43.726562 0.539062 44.929688 0.777344 C 46.132812 1.019531 47.320312 1.316406 48.496094 1.671875 C 49.667969 2.027344 50.820312 2.441406 51.953125 2.910156 C 53.085938 3.378906 54.195312 3.902344 55.273438 4.480469 C 56.355469 5.058594 57.40625 5.6875 58.425781 6.367188 C 59.445312 7.050781 60.429688 7.78125 61.375 8.558594 C 62.324219 9.335938 63.230469 10.15625 64.097656 11.023438 C 64.964844 11.890625 65.789062 12.800781 66.566406 13.746094 C 67.34375 14.695312 68.074219 15.679688 68.753906 16.699219 C 69.4375 17.71875 70.066406 18.765625 70.644531 19.847656 C 71.222656 20.929688 71.746094 22.035156 72.214844 23.167969 C 72.683594 24.300781 73.097656 25.457031 73.453125 26.628906 C 73.808594 27.800781 74.105469 28.988281 74.34375 30.191406 C 74.582031 31.394531 74.761719 32.605469 74.882812 33.828125 C 75.003906 35.046875 75.0625 36.269531 75.0625 37.496094 L 75.0625 71.550781 L 70.578125 70.71875 L 70.578125 37.496094 C 70.574219 36.347656 70.511719 35.199219 70.390625 34.054688 C 70.269531 32.910156 70.085938 31.777344 69.847656 30.652344 C 69.605469 29.527344 69.304688 28.417969 68.949219 27.324219 C 68.589844 26.230469 68.179688 25.160156 67.707031 24.109375 C 67.238281 23.058594 66.714844 22.035156 66.140625 21.039062 C 65.5625 20.042969 64.9375 19.082031 64.257812 18.152344 C 63.582031 17.222656 62.855469 16.332031 62.085938 15.476562 C 61.316406 14.625 60.5 13.8125 59.644531 13.042969 C 58.789062 12.273438 57.894531 11.550781 56.964844 10.878906 C 56.03125 10.203125 55.070312 9.578125 54.070312 9.003906 C 53.074219 8.429688 52.050781 7.910156 51 7.441406 C 49.949219 6.976562 48.875 6.566406 47.78125 6.210938 C 46.6875 5.855469 45.574219 5.558594 44.449219 5.320312 C 43.324219 5.082031 42.191406 4.90625 41.046875 4.785156 C 39.902344 4.667969 38.753906 4.609375 37.605469 4.609375 C 36.453125 4.609375 35.308594 4.671875 34.164062 4.792969 C 33.019531 4.914062 31.882812 5.09375 30.757812 5.332031 C 29.632812 5.574219 28.523438 5.871094 27.429688 6.226562 C 26.335938 6.582031 25.265625 6.996094 24.214844 7.464844 C 23.164062 7.933594 22.140625 8.453125 21.144531 9.03125 C 20.148438 9.605469 19.183594 10.230469 18.253906 10.910156 C 17.324219 11.585938 16.429688 12.308594 15.578125 13.078125 C 14.722656 13.847656 13.910156 14.660156 13.140625 15.515625 C 12.371094 16.371094 11.648438 17.265625 10.972656 18.195312 C 10.296875 19.125 9.671875 20.089844 9.097656 21.085938 C 8.519531 22.082031 8 23.105469 7.53125 24.15625 C 7.0625 25.207031 6.652344 26.28125 6.296875 27.375 C 5.941406 28.46875 5.644531 29.578125 5.40625 30.703125 C 5.164062 31.828125 4.984375 32.964844 4.867188 34.109375 C 4.746094 35.253906 4.683594 36.398438 4.683594 37.550781 C 4.683594 38.699219 4.746094 39.847656 4.863281 40.992188 C 4.984375 42.136719 5.164062 43.269531 5.402344 44.394531 C 5.640625 45.519531 5.9375 46.628906 6.292969 47.726562 C 6.648438 48.820312 7.058594 49.890625 7.527344 50.941406 C 7.996094 51.992188 8.515625 53.019531 9.089844 54.015625 C 9.664062 55.011719 10.289062 55.976562 10.964844 56.90625 C 11.640625 57.835938 12.363281 58.730469 13.132812 59.585938 C 13.902344 60.441406 14.714844 61.253906 15.570312 62.023438 C 16.421875 62.792969 17.316406 63.519531 18.246094 64.195312 C 19.175781 64.871094 20.140625 65.496094 21.136719 66.074219 C 22.128906 66.648438 23.152344 67.171875 24.203125 67.640625 C 25.253906 68.109375 26.328125 68.523438 27.421875 68.878906 C 28.515625 69.234375 29.625 69.535156 30.75 69.773438 C 31.875 70.015625 33.007812 70.195312 34.152344 70.316406 C 35.296875 70.4375 36.445312 70.5 37.59375 70.5 C 38.746094 70.503906 39.890625 70.445312 41.035156 70.324219 C 42.179688 70.207031 43.316406 70.027344 44.441406 69.789062 C 45.566406 69.550781 46.675781 69.257812 47.769531 68.902344 L 55.605469 70.398438 C 54.898438 70.785156 54.175781 71.148438 53.441406 71.492188 C 52.710938 71.832031 51.964844 72.148438 51.210938 72.441406 C 50.457031 72.734375 49.695312 73.003906 48.925781 73.246094 C 48.15625 73.488281 47.375 73.707031 46.589844 73.902344 C 45.804688 74.09375 45.015625 74.261719 44.21875 74.402344 C 43.421875 74.546875 42.625 74.660156 41.820312 74.75 C 41.015625 74.84375 40.210938 74.90625 39.402344 74.945312 C 38.59375 74.980469 37.785156 74.992188 36.976562 74.980469 C 36.167969 74.964844 35.363281 74.925781 34.558594 74.859375 C 33.75 74.789062 32.949219 74.699219 32.148438 74.578125 C 31.347656 74.460938 30.554688 74.316406 29.761719 74.144531 C 28.972656 73.976562 28.1875 73.78125 27.410156 73.558594 C 26.632812 73.339844 25.863281 73.09375 25.101562 72.820312 C 24.339844 72.550781 23.585938 72.253906 22.84375 71.9375 C 22.101562 71.617188 21.367188 71.273438 20.648438 70.90625 C 19.925781 70.539062 19.21875 70.148438 18.523438 69.738281 C 17.828125 69.324219 17.148438 68.890625 16.480469 68.433594 C 15.8125 67.976562 15.160156 67.496094 14.527344 66.996094 C 13.890625 66.5 13.269531 65.980469 12.667969 65.441406 C 12.066406 64.902344 11.480469 64.34375 10.914062 63.765625 C 10.347656 63.1875 9.800781 62.59375 9.273438 61.980469 C 8.746094 61.367188 8.238281 60.738281 7.75 60.09375 C 7.261719 59.449219 6.796875 58.789062 6.351562 58.113281 C 5.910156 57.4375 5.488281 56.746094 5.085938 56.046875 C 4.6875 55.34375 4.308594 54.625 3.957031 53.898438 C 3.605469 53.171875 3.273438 52.433594 2.96875 51.6875 C 2.664062 50.9375 2.382812 50.179688 2.125 49.414062 C 1.867188 48.644531 1.636719 47.871094 1.429688 47.089844 C 1.222656 46.308594 1.042969 45.519531 0.886719 44.726562 C 0.734375 43.933594 0.601562 43.136719 0.5 42.332031 C 0.394531 41.53125 0.320312 40.726562 0.265625 39.917969 C 0.214844 39.113281 0.191406 38.304688 0.191406 37.496094 Z M 63.75 69.449219 L 63.75 37.496094 C 63.75 36.566406 63.703125 35.640625 63.601562 34.714844 C 63.503906 33.789062 63.355469 32.871094 63.160156 31.964844 C 62.964844 31.054688 62.71875 30.15625 62.425781 29.273438 C 62.136719 28.390625 61.796875 27.527344 61.414062 26.679688 C 61.027344 25.832031 60.601562 25.007812 60.128906 24.207031 C 59.65625 23.40625 59.144531 22.632812 58.589844 21.886719 C 58.035156 21.136719 57.441406 20.421875 56.808594 19.738281 C 56.179688 19.054688 55.515625 18.410156 54.8125 17.796875 C 54.113281 17.183594 53.382812 16.609375 52.621094 16.074219 C 51.863281 15.539062 51.074219 15.046875 50.261719 14.597656 C 49.445312 14.148438 48.613281 13.742188 47.753906 13.378906 C 46.898438 13.015625 46.023438 12.703125 45.132812 12.433594 C 44.242188 12.164062 43.339844 11.945312 42.425781 11.773438 C 41.511719 11.601562 40.59375 11.476562 39.664062 11.402344 C 38.738281 11.328125 37.808594 11.304688 36.878906 11.328125 C 35.949219 11.355469 35.023438 11.425781 34.101562 11.550781 C 33.179688 11.675781 32.269531 11.847656 31.363281 12.066406 C 30.460938 12.289062 29.570312 12.558594 28.695312 12.871094 C 27.824219 13.1875 26.964844 13.550781 26.128906 13.957031 C 25.292969 14.363281 24.480469 14.8125 23.691406 15.304688 C 22.90625 15.800781 22.144531 16.335938 21.414062 16.910156 C 20.683594 17.484375 19.984375 18.09375 19.316406 18.742188 C 18.652344 19.394531 18.019531 20.074219 17.425781 20.792969 C 16.832031 21.507812 16.28125 22.253906 15.765625 23.027344 C 15.253906 23.804688 14.78125 24.605469 14.351562 25.429688 C 13.921875 26.253906 13.539062 27.101562 13.203125 27.96875 C 12.863281 28.832031 12.570312 29.714844 12.328125 30.613281 C 12.082031 31.507812 11.886719 32.417969 11.738281 33.335938 C 11.589844 34.253906 11.492188 35.175781 11.445312 36.105469 C 11.394531 37.035156 11.394531 37.964844 11.445312 38.894531 C 11.496094 39.820312 11.59375 40.746094 11.742188 41.664062 C 11.890625 42.582031 12.085938 43.488281 12.332031 44.386719 C 12.578125 45.285156 12.867188 46.164062 13.207031 47.03125 C 13.546875 47.898438 13.929688 48.742188 14.359375 49.566406 C 14.789062 50.394531 15.261719 51.191406 15.777344 51.96875 C 16.289062 52.742188 16.84375 53.488281 17.4375 54.203125 C 18.03125 54.917969 18.664062 55.601562 19.328125 56.25 C 19.996094 56.898438 20.695312 57.511719 21.425781 58.085938 C 22.160156 58.65625 22.917969 59.191406 23.707031 59.683594 C 24.496094 60.175781 25.308594 60.628906 26.144531 61.035156 C 26.980469 61.441406 27.839844 61.800781 28.714844 62.117188 C 29.589844 62.429688 30.476562 62.699219 31.382812 62.917969 C 32.285156 63.136719 33.199219 63.308594 34.121094 63.433594 C 35.042969 63.554688 35.96875 63.628906 36.898438 63.652344 C 37.828125 63.679688 38.753906 63.652344 39.683594 63.578125 C 40.609375 63.503906 41.53125 63.378906 42.445312 63.207031 C 43.359375 63.035156 44.261719 62.8125 45.148438 62.542969 C 46.039062 62.273438 46.914062 61.957031 47.769531 61.597656 L 47.769531 66.375 C 46.757812 66.730469 45.726562 67.03125 44.679688 67.28125 C 43.636719 67.527344 42.578125 67.71875 41.511719 67.855469 C 40.449219 67.992188 39.378906 68.074219 38.304688 68.097656 C 37.230469 68.121094 36.15625 68.089844 35.085938 68 C 34.015625 67.910156 32.949219 67.765625 31.894531 67.566406 C 30.839844 67.363281 29.796875 67.109375 28.769531 66.796875 C 27.738281 66.484375 26.730469 66.121094 25.738281 65.703125 C 24.75 65.289062 23.785156 64.820312 22.84375 64.300781 C 21.902344 63.78125 20.988281 63.214844 20.109375 62.601562 C 19.226562 61.984375 18.378906 61.324219 17.570312 60.621094 C 16.757812 59.917969 15.984375 59.171875 15.25 58.386719 C 14.515625 57.601562 13.828125 56.78125 13.179688 55.921875 C 12.53125 55.0625 11.933594 54.175781 11.378906 53.253906 C 10.824219 52.332031 10.324219 51.382812 9.871094 50.410156 C 9.414062 49.4375 9.015625 48.441406 8.664062 47.421875 C 8.316406 46.40625 8.023438 45.375 7.78125 44.328125 C 7.542969 43.28125 7.359375 42.222656 7.230469 41.15625 C 7.101562 40.089844 7.03125 39.019531 7.011719 37.945312 C 6.996094 36.871094 7.039062 35.796875 7.136719 34.726562 C 7.230469 33.65625 7.386719 32.59375 7.59375 31.539062 C 7.804688 30.484375 8.066406 29.445312 8.386719 28.417969 C 8.703125 27.394531 9.074219 26.386719 9.5 25.398438 C 9.925781 24.410156 10.398438 23.449219 10.925781 22.511719 C 11.453125 21.574219 12.023438 20.667969 12.648438 19.789062 C 13.269531 18.914062 13.933594 18.074219 14.644531 17.265625 C 15.355469 16.457031 16.105469 15.691406 16.894531 14.964844 C 17.6875 14.238281 18.511719 13.550781 19.375 12.910156 C 20.238281 12.269531 21.132812 11.675781 22.058594 11.132812 C 22.984375 10.585938 23.933594 10.089844 24.914062 9.640625 C 25.890625 9.195312 26.886719 8.800781 27.90625 8.460938 C 28.925781 8.121094 29.960938 7.832031 31.011719 7.601562 C 32.058594 7.371094 33.117188 7.191406 34.1875 7.074219 C 35.253906 6.953125 36.324219 6.886719 37.398438 6.878906 C 38.472656 6.871094 39.546875 6.921875 40.617188 7.023438 C 41.683594 7.128906 42.746094 7.292969 43.800781 7.507812 C 44.851562 7.726562 45.890625 7.996094 46.914062 8.324219 C 47.9375 8.648438 48.941406 9.027344 49.925781 9.460938 C 50.910156 9.890625 51.867188 10.375 52.800781 10.90625 C 53.734375 11.4375 54.636719 12.019531 55.511719 12.648438 C 56.382812 13.277344 57.21875 13.949219 58.019531 14.664062 C 58.820312 15.378906 59.582031 16.136719 60.304688 16.933594 C 61.027344 17.726562 61.703125 18.558594 62.339844 19.425781 C 62.972656 20.296875 63.558594 21.195312 64.097656 22.125 C 64.640625 23.050781 65.128906 24.007812 65.566406 24.988281 C 66.007812 25.96875 66.390625 26.972656 66.726562 27.992188 C 67.058594 29.015625 67.339844 30.050781 67.5625 31.101562 C 67.785156 32.152344 67.957031 33.210938 68.066406 34.28125 C 68.179688 35.351562 68.238281 36.421875 68.238281 37.496094 L 68.238281 70.277344 Z M 57.019531 68.15625 L 57.019531 37.496094 C 57.019531 36.789062 56.980469 36.085938 56.902344 35.382812 C 56.824219 34.679688 56.707031 33.984375 56.554688 33.296875 C 56.398438 32.605469 56.207031 31.925781 55.980469 31.257812 C 55.75 30.589844 55.484375 29.9375 55.1875 29.296875 C 54.886719 28.65625 54.550781 28.035156 54.179688 27.433594 C 53.8125 26.832031 53.414062 26.25 52.980469 25.691406 C 52.546875 25.132812 52.085938 24.601562 51.59375 24.09375 C 51.101562 23.585938 50.585938 23.105469 50.042969 22.652344 C 49.5 22.203125 48.933594 21.78125 48.34375 21.394531 C 47.753906 21.003906 47.144531 20.648438 46.515625 20.328125 C 45.886719 20.003906 45.242188 19.71875 44.582031 19.46875 C 43.921875 19.214844 43.246094 19 42.5625 18.824219 C 41.878906 18.648438 41.1875 18.507812 40.488281 18.40625 C 39.789062 18.304688 39.085938 18.242188 38.382812 18.214844 C 37.675781 18.191406 36.96875 18.207031 36.265625 18.257812 C 35.5625 18.3125 34.863281 18.402344 34.167969 18.535156 C 33.472656 18.664062 32.789062 18.832031 32.113281 19.035156 C 31.433594 19.242188 30.773438 19.480469 30.121094 19.757812 C 29.472656 20.039062 28.839844 20.351562 28.226562 20.695312 C 27.609375 21.042969 27.015625 21.421875 26.441406 21.835938 C 25.867188 22.25 25.320312 22.691406 24.792969 23.164062 C 24.269531 23.636719 23.773438 24.136719 23.300781 24.664062 C 22.832031 25.191406 22.390625 25.742188 21.980469 26.320312 C 21.570312 26.894531 21.195312 27.492188 20.851562 28.109375 C 20.507812 28.726562 20.199219 29.359375 19.921875 30.007812 C 19.648438 30.660156 19.410156 31.324219 19.210938 32 C 19.007812 32.679688 18.84375 33.363281 18.71875 34.058594 C 18.589844 34.753906 18.503906 35.457031 18.453125 36.160156 C 18.402344 36.863281 18.394531 37.570312 18.421875 38.277344 C 18.449219 38.980469 18.515625 39.683594 18.621094 40.382812 C 18.726562 41.082031 18.867188 41.773438 19.050781 42.457031 C 19.230469 43.136719 19.449219 43.808594 19.703125 44.46875 C 19.957031 45.128906 20.246094 45.769531 20.570312 46.398438 C 20.898438 47.023438 21.257812 47.632812 21.648438 48.21875 C 22.039062 48.808594 22.460938 49.371094 22.917969 49.914062 C 23.371094 50.457031 23.851562 50.972656 24.363281 51.460938 C 24.871094 51.949219 25.410156 52.40625 25.96875 52.835938 C 26.53125 53.265625 27.113281 53.664062 27.71875 54.03125 C 28.320312 54.394531 28.945312 54.726562 29.585938 55.023438 C 30.226562 55.324219 30.882812 55.582031 31.550781 55.808594 C 32.21875 56.035156 32.898438 56.222656 33.589844 56.375 C 34.28125 56.523438 34.976562 56.636719 35.679688 56.710938 C 36.382812 56.785156 37.085938 56.820312 37.792969 56.820312 C 38.5 56.816406 39.203125 56.773438 39.90625 56.695312 C 40.609375 56.613281 41.304688 56.496094 41.992188 56.339844 C 42.679688 56.183594 43.359375 55.988281 44.027344 55.757812 C 44.695312 55.527344 45.347656 55.261719 45.984375 54.957031 C 46.625 54.65625 47.242188 54.316406 47.84375 53.945312 L 47.84375 59.007812 C 47.074219 59.375 46.285156 59.699219 45.480469 59.980469 C 44.675781 60.261719 43.855469 60.5 43.023438 60.691406 C 42.191406 60.886719 41.355469 61.035156 40.507812 61.136719 C 39.660156 61.238281 38.808594 61.296875 37.957031 61.308594 C 37.101562 61.320312 36.25 61.285156 35.402344 61.207031 C 34.550781 61.125 33.707031 61 32.871094 60.832031 C 32.035156 60.660156 31.210938 60.445312 30.398438 60.1875 C 29.582031 59.925781 28.785156 59.625 28.007812 59.28125 C 27.226562 58.933594 26.464844 58.550781 25.726562 58.121094 C 24.988281 57.695312 24.273438 57.230469 23.582031 56.726562 C 22.894531 56.222656 22.234375 55.683594 21.601562 55.109375 C 20.972656 54.535156 20.371094 53.929688 19.804688 53.289062 C 19.242188 52.652344 18.710938 51.984375 18.214844 51.289062 C 17.722656 50.59375 17.265625 49.871094 16.847656 49.128906 C 16.433594 48.382812 16.054688 47.617188 15.722656 46.832031 C 15.386719 46.046875 15.09375 45.246094 14.847656 44.429688 C 14.597656 43.613281 14.394531 42.785156 14.234375 41.949219 C 14.074219 41.109375 13.960938 40.265625 13.890625 39.414062 C 13.824219 38.5625 13.800781 37.710938 13.824219 36.859375 C 13.847656 36.003906 13.914062 35.15625 14.027344 34.308594 C 14.144531 33.464844 14.300781 32.625 14.507812 31.796875 C 14.710938 30.96875 14.957031 30.152344 15.25 29.351562 C 15.542969 28.550781 15.875 27.765625 16.253906 27 C 16.628906 26.234375 17.042969 25.488281 17.5 24.765625 C 17.957031 24.046875 18.449219 23.351562 18.980469 22.683594 C 19.511719 22.015625 20.078125 21.375 20.675781 20.769531 C 21.277344 20.160156 21.90625 19.585938 22.566406 19.046875 C 23.230469 18.507812 23.917969 18.003906 24.632812 17.539062 C 25.347656 17.074219 26.085938 16.648438 26.847656 16.261719 C 27.605469 15.875 28.386719 15.53125 29.183594 15.226562 C 29.984375 14.925781 30.792969 14.664062 31.621094 14.449219 C 32.445312 14.234375 33.28125 14.0625 34.125 13.9375 C 34.96875 13.8125 35.820312 13.730469 36.671875 13.699219 C 37.523438 13.664062 38.375 13.675781 39.226562 13.730469 C 40.078125 13.789062 40.925781 13.890625 41.765625 14.039062 C 42.605469 14.1875 43.4375 14.382812 44.257812 14.617188 C 45.078125 14.855469 45.882812 15.136719 46.671875 15.460938 C 47.460938 15.785156 48.230469 16.152344 48.980469 16.558594 C 49.730469 16.964844 50.457031 17.410156 51.160156 17.894531 C 51.863281 18.378906 52.539062 18.902344 53.183594 19.457031 C 53.828125 20.015625 54.445312 20.605469 55.027344 21.230469 C 55.609375 21.851562 56.160156 22.503906 56.671875 23.1875 C 57.183594 23.871094 57.660156 24.578125 58.09375 25.3125 C 58.53125 26.046875 58.929688 26.800781 59.285156 27.574219 C 59.640625 28.351562 59.953125 29.144531 60.222656 29.953125 C 60.492188 30.761719 60.71875 31.585938 60.898438 32.417969 C 61.082031 33.253906 61.21875 34.09375 61.308594 34.941406 C 61.402344 35.792969 61.445312 36.644531 61.445312 37.496094 L 61.445312 69.015625 Z M 50.207031 66.890625 L 50.207031 37.496094 C 50.207031 37.003906 50.179688 36.511719 50.121094 36.023438 C 50.0625 35.535156 49.976562 35.050781 49.859375 34.570312 C 49.746094 34.089844 49.601562 33.621094 49.429688 33.160156 C 49.261719 32.695312 49.0625 32.246094 48.839844 31.808594 C 48.613281 31.367188 48.367188 30.945312 48.089844 30.535156 C 47.816406 30.125 47.519531 29.734375 47.199219 29.359375 C 46.878906 28.984375 46.539062 28.628906 46.175781 28.296875 C 45.8125 27.960938 45.433594 27.652344 45.035156 27.363281 C 44.636719 27.074219 44.222656 26.808594 43.789062 26.566406 C 43.359375 26.328125 42.917969 26.113281 42.460938 25.925781 C 42.007812 25.738281 41.542969 25.578125 41.066406 25.445312 C 40.59375 25.308594 40.113281 25.207031 39.625 25.128906 C 39.140625 25.050781 38.648438 25.003906 38.15625 24.988281 C 37.664062 24.96875 37.171875 24.976562 36.683594 25.019531 C 36.191406 25.058594 35.703125 25.125 35.21875 25.222656 C 34.738281 25.320312 34.261719 25.445312 33.792969 25.597656 C 33.324219 25.75 32.867188 25.929688 32.421875 26.136719 C 31.972656 26.34375 31.539062 26.578125 31.121094 26.835938 C 30.699219 27.09375 30.296875 27.375 29.910156 27.679688 C 29.523438 27.988281 29.15625 28.3125 28.808594 28.664062 C 28.460938 29.011719 28.136719 29.378906 27.832031 29.769531 C 27.527344 30.15625 27.246094 30.558594 26.992188 30.980469 C 26.734375 31.402344 26.503906 31.835938 26.296875 32.285156 C 26.09375 32.730469 25.914062 33.191406 25.761719 33.660156 C 25.613281 34.128906 25.488281 34.605469 25.394531 35.085938 C 25.296875 35.570312 25.230469 36.058594 25.195312 36.550781 C 25.15625 37.039062 25.148438 37.53125 25.167969 38.023438 C 25.191406 38.515625 25.238281 39.007812 25.316406 39.492188 C 25.394531 39.980469 25.503906 40.460938 25.636719 40.933594 C 25.773438 41.40625 25.933594 41.871094 26.125 42.328125 C 26.3125 42.78125 26.53125 43.222656 26.773438 43.652344 C 27.015625 44.082031 27.28125 44.496094 27.570312 44.894531 C 27.863281 45.289062 28.175781 45.671875 28.511719 46.03125 C 28.847656 46.390625 29.203125 46.730469 29.578125 47.050781 C 29.953125 47.371094 30.347656 47.664062 30.757812 47.9375 C 31.167969 48.210938 31.59375 48.457031 32.03125 48.679688 C 32.472656 48.902344 32.921875 49.097656 33.386719 49.265625 C 33.847656 49.4375 34.320312 49.578125 34.800781 49.691406 C 35.277344 49.804688 35.761719 49.890625 36.253906 49.945312 C 36.742188 50 37.234375 50.027344 37.726562 50.027344 C 38.21875 50.027344 38.710938 49.996094 39.199219 49.933594 C 39.6875 49.875 40.171875 49.789062 40.648438 49.671875 C 41.128906 49.554688 41.597656 49.410156 42.0625 49.238281 C 42.523438 49.066406 42.972656 48.867188 43.410156 48.640625 C 43.847656 48.417969 44.273438 48.164062 44.679688 47.890625 C 45.089844 47.617188 45.480469 47.316406 45.855469 46.996094 C 46.226562 46.675781 46.582031 46.332031 46.914062 45.96875 C 47.246094 45.605469 47.558594 45.222656 47.84375 44.824219 L 47.84375 51.113281 C 47.339844 51.492188 46.8125 51.84375 46.269531 52.167969 C 45.722656 52.488281 45.164062 52.777344 44.585938 53.039062 C 44.007812 53.296875 43.417969 53.523438 42.8125 53.71875 C 42.210938 53.910156 41.597656 54.070312 40.980469 54.195312 C 40.359375 54.320312 39.734375 54.410156 39.101562 54.464844 C 38.472656 54.519531 37.839844 54.539062 37.207031 54.523438 C 36.574219 54.507812 35.945312 54.457031 35.316406 54.371094 C 34.6875 54.285156 34.070312 54.164062 33.453125 54.007812 C 32.839844 53.855469 32.238281 53.664062 31.644531 53.441406 C 31.050781 53.21875 30.472656 52.964844 29.910156 52.679688 C 29.347656 52.390625 28.800781 52.074219 28.269531 51.726562 C 27.742188 51.375 27.234375 51 26.746094 50.59375 C 26.261719 50.191406 25.796875 49.757812 25.359375 49.304688 C 24.921875 48.847656 24.507812 48.367188 24.125 47.863281 C 23.738281 47.363281 23.382812 46.839844 23.058594 46.296875 C 22.730469 45.753906 22.433594 45.195312 22.171875 44.621094 C 21.90625 44.046875 21.675781 43.457031 21.476562 42.855469 C 21.277344 42.253906 21.113281 41.644531 20.984375 41.023438 C 20.851562 40.40625 20.757812 39.78125 20.699219 39.148438 C 20.636719 38.519531 20.613281 37.886719 20.621094 37.253906 C 20.632812 36.621094 20.675781 35.992188 20.757812 35.363281 C 20.835938 34.734375 20.953125 34.113281 21.101562 33.5 C 21.253906 32.882812 21.4375 32.28125 21.652344 31.683594 C 21.871094 31.089844 22.121094 30.511719 22.402344 29.941406 C 22.683594 29.375 23 28.828125 23.339844 28.296875 C 23.683594 27.765625 24.058594 27.253906 24.457031 26.761719 C 24.859375 26.273438 25.285156 25.804688 25.738281 25.363281 C 26.191406 24.921875 26.667969 24.503906 27.167969 24.117188 C 27.664062 23.726562 28.183594 23.367188 28.722656 23.035156 C 29.261719 22.703125 29.820312 22.402344 30.394531 22.132812 C 30.964844 21.863281 31.550781 21.628906 32.152344 21.425781 C 32.75 21.222656 33.359375 21.050781 33.976562 20.914062 C 34.597656 20.78125 35.21875 20.679688 35.851562 20.613281 C 36.480469 20.546875 37.109375 20.515625 37.742188 20.519531 C 38.375 20.523438 39.007812 20.566406 39.636719 20.640625 C 40.265625 20.714844 40.886719 20.824219 41.503906 20.96875 C 42.121094 21.113281 42.726562 21.292969 43.324219 21.503906 C 43.917969 21.714844 44.503906 21.960938 45.070312 22.238281 C 45.640625 22.515625 46.191406 22.824219 46.726562 23.164062 C 47.261719 23.5 47.777344 23.867188 48.269531 24.265625 C 48.761719 24.660156 49.234375 25.085938 49.679688 25.535156 C 50.125 25.980469 50.546875 26.453125 50.941406 26.949219 C 51.332031 27.445312 51.699219 27.960938 52.035156 28.5 C 52.371094 29.035156 52.675781 29.589844 52.949219 30.160156 C 53.222656 30.730469 53.464844 31.3125 53.675781 31.910156 C 53.882812 32.507812 54.058594 33.117188 54.199219 33.734375 C 54.339844 34.351562 54.445312 34.972656 54.519531 35.601562 C 54.589844 36.230469 54.625 36.863281 54.628906 37.496094 L 54.628906 67.742188 Z M 50.207031 66.890625 "/></g></g></svg>