<svg xmlns="http://www.w3.org/2000/svg" xmlns:xlink="http://www.w3.org/1999/xlink" zoomAndPan="magnify" preserveAspectRatio="xMidYMid meet" version="1.2" viewBox="0.35 -0.13 405.3 84.47"><defs><clipPath id="0908911c0b"><path d="M 0.347656 0 L 405.652344 0 L 405.652344 84.355469 L 0.347656 84.355469 Z M 0.347656 0 "/></clipPath></defs><g id="96a149baa7"><g clip-rule="nonzero" clip-path="url(#0908911c0b)"><path style=" stroke:none;fill-rule:evenodd;fill:#ffffff;fill-opacity:1;" d="M 269.964844 39.886719 C 270.03125 39.125 270.0625 38.558594 270.0625 38.1875 C 270.0625 36.949219 269.859375 35.765625 269.441406 34.671875 C 269.039062 33.597656 268.300781 32.71875 267.222656 32.046875 C 265.953125 31.25 263.972656 30.921875 261.347656 31.066406 C 260.667969 31.09375 259.996094 31.183594 259.359375 31.316406 C 257.199219 31.765625 255.195312 32.554688 253.410156 33.671875 C 252.0625 34.5 250.859375 35.535156 249.820312 36.75 L 249.445312 37.179688 L 249.402344 36.613281 C 249.320312 35.632812 249.039062 34.707031 248.566406 33.84375 C 248.109375 32.996094 247.339844 32.316406 246.285156 31.808594 C 245.222656 31.296875 243.699219 31.042969 241.753906 31.042969 C 239.28125 31.042969 236.875 31.519531 234.59375 32.457031 C 232.320312 33.394531 230.402344 34.773438 228.890625 36.5625 L 228.261719 37.308594 L 229.535156 31.554688 L 220.039062 31.554688 C 219.261719 31.554688 218.574219 32.101562 218.402344 32.84375 L 211.382812 64.734375 L 223.53125 64.734375 L 227.679688 45.90625 C 228.359375 43.320312 230.59375 41.300781 232.828125 41.277344 L 232.859375 41.277344 C 233.832031 41.277344 234.707031 41.671875 235.3125 42.390625 C 236.050781 43.261719 236.359375 44.535156 236.148438 45.90625 L 236.164062 45.90625 L 236.089844 46.253906 L 232.023438 64.734375 L 244.042969 64.734375 L 248.199219 45.90625 C 248.871094 43.320312 251.105469 41.300781 253.347656 41.277344 L 253.378906 41.277344 C 254.359375 41.277344 255.234375 41.671875 255.832031 42.390625 C 256.578125 43.261719 256.878906 44.535156 256.667969 45.90625 L 256.683594 45.90625 L 256.609375 46.253906 L 252.550781 64.734375 L 264.589844 64.734375 L 269.449219 42.867188 C 269.710938 41.644531 269.875 40.652344 269.945312 39.902344 Z M 384.699219 51.566406 C 389.632812 42.1875 393.820312 32.339844 394.367188 31.027344 L 405.652344 31.027344 C 403.910156 34.394531 390.179688 60.957031 383.902344 70.023438 C 377.164062 79.746094 365.183594 78.738281 363.308594 78.515625 L 365.242188 69.425781 C 369.0625 69.8125 371.753906 68.285156 372.671875 67.765625 L 372.6875 67.765625 C 373.765625 67.144531 375.371094 65.460938 376.066406 64.539062 L 376.125 64.457031 L 371.65625 31.027344 L 382.816406 31.027344 L 384.320312 52.296875 Z M 211.808594 37.964844 C 210.808594 35.863281 209.179688 34.164062 206.988281 32.917969 C 204.789062 31.667969 201.832031 31.027344 198.191406 31.027344 C 194.804688 31.027344 191.730469 31.585938 189.0625 32.671875 C 186.394531 33.769531 184.101562 35.289062 182.238281 37.195312 C 180.378906 39.101562 178.925781 41.308594 177.925781 43.746094 C 176.929688 46.179688 176.429688 48.75 176.429688 51.394531 C 176.429688 54.042969 176.945312 56.328125 177.957031 58.460938 C 178.964844 60.582031 180.601562 62.304688 182.8125 63.570312 C 185.035156 64.84375 187.988281 65.492188 191.574219 65.492188 C 194.960938 65.492188 198.035156 64.925781 200.695312 63.816406 C 203.363281 62.707031 205.65625 61.171875 207.519531 59.265625 C 209.386719 57.363281 210.828125 55.179688 211.832031 52.714844 C 212.835938 50.285156 213.335938 47.707031 213.335938 45.0625 C 213.335938 42.417969 212.820312 40.078125 211.800781 37.964844 Z M 201.226562 48.066406 C 200.65625 52.199219 197.367188 55.769531 193.90625 56.023438 C 193.78125 56.023438 193.652344 56.039062 193.527344 56.039062 C 192.203125 56.039062 191.007812 55.53125 190.101562 54.585938 C 188.824219 53.238281 188.261719 51.164062 188.578125 48.894531 C 189.144531 44.757812 192.433594 41.191406 195.894531 40.9375 C 197.359375 40.816406 198.714844 41.339844 199.699219 42.367188 C 200.980469 43.714844 201.539062 45.785156 201.226562 48.066406 Z M 161.277344 31.035156 C 164.917969 31.035156 167.878906 31.675781 170.078125 32.925781 C 172.265625 34.179688 173.890625 35.878906 174.898438 37.972656 C 175.90625 40.085938 176.429688 42.472656 176.429688 45.070312 C 176.429688 47.671875 175.921875 50.292969 174.929688 52.722656 C 173.925781 55.160156 172.484375 57.363281 170.621094 59.269531 C 168.761719 61.179688 166.464844 62.714844 163.796875 63.824219 C 161.128906 64.933594 158.066406 65.5 154.679688 65.5 C 151.074219 65.5 148.136719 64.851562 145.917969 63.585938 C 143.699219 62.3125 142.066406 60.589844 141.058594 58.472656 C 140.050781 56.335938 139.527344 53.960938 139.527344 51.402344 C 139.527344 48.847656 140.035156 46.179688 141.027344 43.753906 C 142.03125 41.316406 143.472656 39.117188 145.335938 37.203125 C 147.195312 35.304688 149.492188 33.785156 152.160156 32.6875 C 154.820312 31.59375 157.890625 31.042969 161.277344 31.042969 Z M 156.980469 55.816406 C 160.441406 55.5625 163.722656 51.992188 164.296875 47.859375 C 164.613281 45.578125 164.050781 43.507812 162.773438 42.15625 C 161.785156 41.128906 160.433594 40.609375 158.96875 40.726562 C 155.507812 40.980469 152.226562 44.550781 151.652344 48.683594 C 151.335938 50.964844 151.898438 53.035156 153.175781 54.375 C 154.074219 55.324219 155.277344 55.828125 156.597656 55.828125 C 156.726562 55.828125 156.855469 55.828125 156.980469 55.816406 Z M 367.253906 54.421875 C 366.632812 54.59375 366.25 54.4375 366.027344 54.257812 C 365.550781 53.863281 365.4375 53.042969 365.714844 51.804688 L 369.90625 33.054688 L 360.152344 33.054688 L 359.351562 36.980469 L 359.03125 36.570312 C 357.933594 35.183594 355.953125 33.300781 354.195312 32.433594 C 352.414062 31.554688 350.242188 31.035156 348.378906 31.035156 C 345.917969 31.035156 343.566406 31.601562 341.367188 32.703125 C 339.15625 33.8125 337.167969 35.355469 335.433594 37.292969 C 333.699219 39.222656 332.332031 41.488281 331.351562 44.027344 C 330.378906 46.570312 329.886719 49.308594 329.886719 52.164062 C 329.886719 54.765625 330.378906 57.101562 331.34375 59.109375 C 332.316406 61.105469 333.707031 62.683594 335.476562 63.800781 C 337.257812 64.925781 339.417969 65.5 341.90625 65.5 C 344.015625 65.5 346.113281 65.03125 348.167969 64.105469 C 350.496094 63.0625 352.535156 61.5 353.925781 59.703125 L 354.351562 59.144531 C 354.351562 59.144531 353.753906 62 355.5625 63.71875 C 356.691406 64.777344 358.800781 64.882812 360.128906 64.84375 C 362.410156 64.785156 364.523438 63.859375 365.257812 63.292969 L 367.238281 54.429688 Z M 355.609375 47.6875 C 355.046875 51.785156 351.796875 55.316406 348.378906 55.570312 L 348.355469 55.570312 C 348.230469 55.570312 348.117188 55.582031 347.996094 55.582031 C 346.691406 55.582031 345.5 55.085938 344.613281 54.152344 C 343.339844 52.820312 342.789062 50.761719 343.101562 48.503906 C 343.664062 44.40625 346.914062 40.875 350.332031 40.625 C 351.789062 40.511719 353.125 41.027344 354.089844 42.046875 C 355.359375 43.371094 355.914062 45.429688 355.601562 47.6875 Z M 297.175781 31.035156 C 299.582031 31.035156 301.691406 31.617188 303.425781 32.761719 C 305.164062 33.910156 306.535156 35.503906 307.476562 37.496094 C 308.425781 39.492188 308.902344 41.824219 308.902344 44.429688 C 308.902344 47.261719 308.394531 49.988281 307.402344 52.542969 C 306.390625 55.097656 305.03125 57.394531 303.335938 59.351562 C 301.652344 61.320312 299.679688 62.878906 297.488281 63.996094 C 295.304688 65.105469 293.011719 65.671875 290.679688 65.671875 C 288.347656 65.671875 286.484375 65.195312 284.984375 64.261719 C 283.503906 63.332031 282.507812 61.96875 282.039062 60.195312 L 281.792969 59.234375 L 277.472656 78.664062 L 265.382812 78.664062 L 275.421875 32.898438 C 275.585938 32.121094 276.296875 31.554688 277.105469 31.554688 L 286.148438 31.554688 L 284.878906 37.417969 L 285.507812 36.675781 C 287.023438 34.855469 288.757812 33.457031 290.65625 32.488281 C 292.554688 31.527344 294.746094 31.035156 297.167969 31.035156 Z M 288.9375 55.695312 C 292.375 55.441406 295.628906 51.886719 296.195312 47.777344 C 296.511719 45.503906 295.957031 43.441406 294.679688 42.105469 C 293.707031 41.078125 292.355469 40.554688 290.902344 40.675781 C 287.464844 40.929688 284.214844 44.484375 283.644531 48.59375 C 283.339844 50.867188 283.882812 52.929688 285.164062 54.273438 C 286.050781 55.210938 287.25 55.710938 288.554688 55.710938 C 288.683594 55.710938 288.804688 55.710938 288.9375 55.695312 Z M 122.746094 18.398438 C 132.222656 18.464844 137.574219 23.324219 137.574219 29.378906 C 137.574219 35.4375 133.023438 40.011719 128.132812 41.25 C 134.9375 42.152344 137.917969 48.511719 136.789062 54.027344 C 134.875 63.300781 126.847656 65.640625 116.601562 65.96875 L 116.449219 65.96875 C 116.277344 65.96875 116.097656 65.976562 115.921875 65.984375 C 115.5625 65.992188 115.195312 66.007812 114.828125 66.007812 L 96.449219 66.007812 C 96.035156 66.007812 95.664062 65.820312 95.402344 65.507812 C 95.136719 65.175781 95.046875 64.800781 95.132812 64.382812 L 104.625 19.734375 C 104.707031 19.347656 104.90625 19.027344 105.210938 18.777344 C 105.519531 18.527344 105.871094 18.402344 106.269531 18.398438 Z M 117.765625 56.46875 C 120.792969 56.46875 122.945312 53.960938 123.367188 51.703125 C 123.628906 50.292969 123.34375 48.988281 122.566406 48.027344 C 121.855469 47.140625 120.785156 46.464844 119.523438 46.464844 L 110.703125 46.441406 L 108.617188 56.457031 L 117.757812 56.476562 Z M 120.957031 37.144531 C 123.671875 37.144531 125.621094 34.863281 126.003906 32.832031 C 126.242188 31.554688 125.980469 30.363281 125.277344 29.492188 C 124.621094 28.679688 123.65625 28.070312 122.453125 28.070312 L 114.65625 28.039062 L 112.765625 37.144531 L 120.964844 37.144531 Z M 322.230469 51.820312 L 322.230469 51.835938 L 322.1875 52.113281 C 322.15625 52.277344 322.132812 52.433594 322.105469 52.582031 C 322.058594 52.835938 322.03125 53.074219 322.03125 53.304688 C 322.03125 55.078125 322.933594 56.015625 324.644531 56.015625 C 325.152344 56.015625 325.730469 55.925781 326.359375 55.746094 C 326.828125 55.621094 327.292969 55.441406 327.734375 55.234375 L 325.820312 64.023438 C 324.300781 64.6875 323.742188 64.933594 322.335938 65.296875 C 320.355469 65.8125 318.472656 65.878906 317.042969 65.878906 C 314.390625 65.878906 312.34375 65.296875 310.964844 64.144531 C 309.597656 63.003906 308.902344 61.328125 308.902344 59.152344 C 308.902344 58.691406 308.925781 58.214844 308.96875 57.742188 C 309.007812 57.28125 309.097656 56.796875 309.226562 56.277344 L 317.296875 19.554688 C 317.460938 18.792969 318.148438 18.257812 318.933594 18.257812 L 329.488281 18.257812 L 322.222656 51.828125 Z M 0.347656 42.105469 C 0.347656 18.777344 19.320312 -0.128906 42.722656 -0.128906 C 66.128906 -0.128906 85.101562 18.777344 85.101562 42.105469 C 85.101562 65.433594 66.128906 84.339844 42.722656 84.339844 C 19.320312 84.339844 0.347656 65.433594 0.347656 42.105469 "/></g><path style=" stroke:none;fill-rule:evenodd;fill:#000000;fill-opacity:1;" d="M 49.75 40.042969 C 55.867188 40.042969 60.589844 35.132812 60.589844 29.136719 C 60.589844 23.136719 55.722656 18.242188 49.714844 18.226562 L 34.269531 18.226562 C 33.402344 18.226562 32.648438 18.832031 32.453125 19.671875 L 31.527344 23.785156 C 31.488281 23.933594 31.59375 24.082031 31.75 24.105469 L 42.628906 25.550781 L 45.496094 25.929688 C 48.308594 26.3125 50.25 28.300781 50.191406 31.011719 C 50.140625 33.277344 48.59375 35.230469 46.378906 35.734375 C 43.164062 36.472656 40.28125 34.074219 40.234375 30.976562 C 40.21875 29.992188 40.488281 29.074219 40.96875 28.300781 L 31.054688 26.980469 C 30.921875 26.96875 30.792969 27.054688 30.765625 27.183594 L 27.035156 43.707031 C 26.996094 43.855469 27.101562 44.003906 27.257812 44.027344 L 42.464844 46.039062 L 44.101562 46.253906 C 47.367188 46.703125 49.953125 49.109375 49.855469 52.433594 C 49.773438 55.277344 47.664062 57.707031 44.847656 58.160156 C 41.148438 58.765625 37.910156 55.957031 37.84375 52.351562 C 37.820312 50.917969 38.292969 49.609375 39.105469 48.558594 C 39.921875 47.507812 26.546875 46.910156 26.546875 46.910156 C 26.414062 46.894531 26.285156 46.984375 26.257812 47.113281 L 23.320312 60.113281 C 22.648438 63.09375 24.910156 65.96875 27.976562 65.976562 L 49.667969 65.976562 C 56.785156 65.976562 62.554688 60.164062 62.554688 53 C 62.554688 45.832031 56.898438 40.019531 49.742188 40.019531 "/></g></svg>