<svg xmlns="http://www.w3.org/2000/svg" id="_層_1" viewBox="161.69 160.43 852.2 178.3"><g><path d="M755.51,160.43c-61.34,0-88.83,38.18-88.83,89.16s28.02,89.14,88.83,89.14,88.91-44.28,88.91-89.14-27.57-89.16-88.91-89.16m0,142.49c-33.38,0-47.34-28.33-47.34-53.36s15.3-52.78,47.34-52.78,47.38,27.73,47.38,52.78-14.01,53.36-47.38,53.36" fill="#09cef6"/><path d="M317.35,166.36h-29.21c-13.12,0-19.36,3.32-26.93,11.47l-58.12,59.63v-65.96c0-2.49-1.57-4.82-4.55-4.82h-32.12c-3.19,0-4.73,1.99-4.73,4.82v157.46c0,2.07,1.69,3.74,3.74,3.74h33.9c2.06,0,3.76-1.67,3.76-3.74v-67.29l60,64.39c5.15,5.25,13.29,7.66,23.41,7.66h29.23c9.68,0,6.1-5.57,6.1-5.57l-75.12-78.02,75.4-78.27s4.95-5.49-4.75-5.49" fill="#09cef6"/><path d="M489.95,166.36h-29.21c-13.12,0-19.36,3.32-26.93,11.47l-58.12,59.63v-65.96c0-2.49-1.57-4.82-4.55-4.82h-32.12c-3.19,0-4.73,1.99-4.73,4.82v157.46c0,2.07,1.7,3.74,3.74,3.74h33.9c2.06,0,3.76-1.67,3.76-3.74v-67.29l60,64.39c5.15,5.25,13.29,7.66,23.41,7.66h29.23c9.68,0,6.1-5.57,6.1-5.57l-75.12-78.02,75.4-78.27s4.95-5.49-4.75-5.49" fill="#09cef6"/><path d="M1013.51,327.64l-57.46-79.55,53.56-76.24s4.95-5.49-4.73-5.49h-28.05c-12.25,0-17.53,.14-23.35,8.56l-25.81,40.01-26.66-40.52c-6.04-7.4-13.16-8.05-25.55-8.05h-25.49c-9.73,0-4.98,5.49-4.98,5.49l54.93,76.24-58.52,80.06s-3.55,5.57,6.13,5.57h25.92c7.66,0,18.25,1.21,24.2-6.72,.11-.15,30.01-45.03,30.01-45.03,0,0,29.48,44.16,29.6,44.25,5.97,8.16,15.99,7.5,23.68,7.5h25.7c9.7,0,6.86-6.08,6.86-6.08" fill="#09cef6"/><path d="M515.66,165.69h78.69c36.85,0,51.95,21.95,51.95,42.67,0,17.09-12.3,31.33-26.4,37.87,18.89,7.53,32.74,18.32,32.74,43.59,0,27.97-19.95,43.65-54.09,43.65h-83.66c-3.15,0-5.34-2.3-5.34-5.56V171.86c0-3.87,2.6-6.17,6.1-6.17m61.73,68.18c16.27,0,24.99-3.95,24.99-18.18v-.81c0-10.98-7.86-16.32-26.12-16.32l-23.12,.42v34.88h24.25Zm3.09,68.37c19.27,0,26.45-6.45,26.45-18.76v-.4c0-13.48-8.7-19.89-25.15-19.89h-28.64v38.42l27.34,.63Z" fill="#09cef6"/></g><rect width="1175.58" height="501.09" fill="none"/></svg>