<svg xmlns="http://www.w3.org/2000/svg" xmlns:xlink="http://www.w3.org/1999/xlink" width="125" zoomAndPan="magnify" viewBox="0 0 93.75 30.000001" height="40" preserveAspectRatio="xMidYMid meet" version="1.2"><defs><clipPath id="ee6e0dd725"><path d="M 1.390625 7 L 21 7 L 21 22 L 1.390625 22 Z M 1.390625 7 "/></clipPath><clipPath id="a90396fa5c"><path d="M 87 11 L 92.117188 11 L 92.117188 21 L 87 21 Z M 87 11 "/></clipPath></defs><g id="6eb46a00fc"><g clip-rule="nonzero" clip-path="url(#ee6e0dd725)"><path style=" stroke:none;fill-rule:nonzero;fill:#ff0000;fill-opacity:1;" d="M 19.832031 9.984375 C 19.617188 9.171875 18.980469 8.535156 18.167969 8.316406 C 16.699219 7.925781 10.808594 7.925781 10.808594 7.925781 C 10.808594 7.925781 4.921875 7.925781 3.449219 8.316406 C 2.640625 8.53125 2.003906 9.171875 1.785156 9.984375 C 1.390625 11.449219 1.390625 14.515625 1.390625 14.515625 C 1.390625 14.515625 1.390625 17.582031 1.785156 19.050781 C 2 19.859375 2.636719 20.496094 3.449219 20.714844 C 4.921875 21.109375 10.808594 21.109375 10.808594 21.109375 C 10.808594 21.109375 16.699219 21.109375 18.167969 20.714844 C 18.976562 20.5 19.613281 19.859375 19.832031 19.050781 C 20.226562 17.582031 20.226562 14.515625 20.226562 14.515625 C 20.226562 14.515625 20.226562 11.449219 19.832031 9.984375 Z M 19.832031 9.984375 "/></g><path style=" stroke:none;fill-rule:nonzero;fill:#ffffff;fill-opacity:1;" d="M 8.925781 17.339844 L 13.820312 14.515625 L 8.925781 11.691406 Z M 8.925781 17.339844 "/><path style=" stroke:none;fill-rule:nonzero;fill:#ffffff;fill-opacity:1;" d="M 28.730469 19.917969 C 28.359375 19.667969 28.089844 19.277344 27.933594 18.746094 C 27.777344 18.214844 27.699219 17.511719 27.699219 16.632812 L 27.699219 15.433594 C 27.699219 14.542969 27.789062 13.828125 27.96875 13.289062 C 28.148438 12.75 28.429688 12.359375 28.8125 12.113281 C 29.191406 11.867188 29.691406 11.742188 30.3125 11.742188 C 30.921875 11.742188 31.410156 11.867188 31.78125 12.117188 C 32.148438 12.371094 32.417969 12.761719 32.589844 13.296875 C 32.757812 13.828125 32.84375 14.542969 32.84375 15.429688 L 32.84375 16.628906 C 32.84375 17.507812 32.757812 18.214844 32.59375 18.75 C 32.429688 19.28125 32.160156 19.675781 31.785156 19.921875 C 31.414062 20.167969 30.90625 20.292969 30.269531 20.292969 C 29.617188 20.296875 29.101562 20.171875 28.730469 19.917969 Z M 30.816406 18.625 C 30.917969 18.355469 30.972656 17.914062 30.972656 17.304688 L 30.972656 14.730469 C 30.972656 14.140625 30.921875 13.707031 30.816406 13.433594 C 30.714844 13.160156 30.53125 13.019531 30.273438 13.019531 C 30.019531 13.019531 29.84375 13.160156 29.738281 13.433594 C 29.636719 13.703125 29.582031 14.140625 29.582031 14.730469 L 29.582031 17.304688 C 29.582031 17.917969 29.628906 18.359375 29.730469 18.625 C 29.828125 18.894531 30.007812 19.027344 30.269531 19.027344 C 30.53125 19.027344 30.714844 18.894531 30.816406 18.625 Z M 30.816406 18.625 "/><path style=" stroke:none;fill-rule:nonzero;fill:#ffffff;fill-opacity:1;" d="M 57.335938 16.652344 L 57.335938 17.070312 C 57.335938 17.597656 57.351562 17.996094 57.382812 18.261719 C 57.414062 18.523438 57.480469 18.71875 57.578125 18.839844 C 57.675781 18.960938 57.828125 19.023438 58.035156 19.023438 C 58.316406 19.023438 58.507812 18.914062 58.609375 18.699219 C 58.710938 18.484375 58.765625 18.125 58.777344 17.621094 L 60.378906 17.714844 C 60.386719 17.785156 60.390625 17.882812 60.390625 18.011719 C 60.390625 18.773438 60.179688 19.34375 59.765625 19.722656 C 59.347656 20.097656 58.757812 20.285156 57.992188 20.285156 C 57.078125 20.285156 56.4375 20 56.066406 19.425781 C 55.699219 18.847656 55.515625 17.960938 55.515625 16.757812 L 55.515625 15.316406 C 55.515625 14.074219 55.707031 13.171875 56.089844 12.601562 C 56.46875 12.03125 57.121094 11.746094 58.046875 11.746094 C 58.6875 11.746094 59.175781 11.863281 59.515625 12.097656 C 59.859375 12.332031 60.097656 12.695312 60.238281 13.1875 C 60.375 13.683594 60.449219 14.367188 60.449219 15.234375 L 60.449219 16.648438 L 57.335938 16.648438 Z M 57.570312 13.175781 C 57.480469 13.292969 57.414062 13.484375 57.382812 13.75 C 57.351562 14.011719 57.335938 14.417969 57.335938 14.953125 L 57.335938 15.546875 L 58.695312 15.546875 L 58.695312 14.953125 C 58.695312 14.421875 58.675781 14.023438 58.640625 13.75 C 58.605469 13.476562 58.539062 13.28125 58.445312 13.171875 C 58.355469 13.058594 58.207031 13.003906 58.007812 13.003906 C 57.8125 13 57.664062 13.058594 57.570312 13.175781 Z M 57.570312 13.175781 "/><path style=" stroke:none;fill-rule:nonzero;fill:#ffffff;fill-opacity:1;" d="M 24.203125 16.496094 L 22.089844 8.859375 L 23.933594 8.859375 L 24.675781 12.320312 C 24.863281 13.175781 25 13.898438 25.089844 14.5 L 25.144531 14.5 C 25.207031 14.070312 25.347656 13.347656 25.5625 12.332031 L 26.328125 8.855469 L 28.175781 8.855469 L 26.035156 16.496094 L 26.035156 20.160156 L 24.203125 20.160156 Z M 24.203125 16.496094 "/><path style=" stroke:none;fill-rule:nonzero;fill:#ffffff;fill-opacity:1;" d="M 38.84375 11.902344 L 38.84375 20.15625 L 37.390625 20.15625 L 37.230469 19.148438 L 37.191406 19.148438 C 36.796875 19.914062 36.203125 20.292969 35.414062 20.292969 C 34.867188 20.292969 34.460938 20.113281 34.199219 19.753906 C 33.941406 19.394531 33.8125 18.832031 33.8125 18.070312 L 33.8125 11.902344 L 35.667969 11.902344 L 35.667969 17.964844 C 35.667969 18.332031 35.707031 18.597656 35.789062 18.753906 C 35.867188 18.910156 36.003906 18.988281 36.191406 18.988281 C 36.355469 18.988281 36.511719 18.941406 36.65625 18.84375 C 36.804688 18.742188 36.914062 18.617188 36.984375 18.464844 L 36.984375 11.902344 Z M 38.84375 11.902344 "/><path style=" stroke:none;fill-rule:nonzero;fill:#ffffff;fill-opacity:1;" d="M 48.378906 11.902344 L 48.378906 20.15625 L 46.925781 20.15625 L 46.765625 19.148438 L 46.726562 19.148438 C 46.328125 19.914062 45.738281 20.292969 44.949219 20.292969 C 44.398438 20.292969 43.996094 20.113281 43.734375 19.753906 C 43.472656 19.394531 43.34375 18.832031 43.34375 18.070312 L 43.34375 11.902344 L 45.203125 11.902344 L 45.203125 17.964844 C 45.203125 18.332031 45.242188 18.597656 45.320312 18.753906 C 45.402344 18.910156 45.539062 18.988281 45.726562 18.988281 C 45.886719 18.988281 46.042969 18.941406 46.191406 18.84375 C 46.335938 18.742188 46.449219 18.617188 46.519531 18.464844 L 46.519531 11.902344 Z M 48.378906 11.902344 "/><path style=" stroke:none;fill-rule:nonzero;fill:#ffffff;fill-opacity:1;" d="M 43.898438 10.355469 L 42.050781 10.355469 L 42.050781 20.160156 L 40.230469 20.160156 L 40.230469 10.355469 L 38.386719 10.355469 L 38.386719 8.859375 L 43.894531 8.859375 L 43.894531 10.355469 Z M 43.898438 10.355469 "/><path style=" stroke:none;fill-rule:nonzero;fill:#ffffff;fill-opacity:1;" d="M 54.53125 13.226562 C 54.417969 12.703125 54.238281 12.328125 53.984375 12.09375 C 53.734375 11.859375 53.386719 11.742188 52.949219 11.742188 C 52.605469 11.742188 52.289062 11.839844 51.992188 12.03125 C 51.695312 12.222656 51.46875 12.480469 51.308594 12.792969 L 51.292969 12.792969 L 51.292969 8.441406 L 49.5 8.441406 L 49.5 20.160156 L 51.035156 20.160156 L 51.222656 19.378906 L 51.261719 19.378906 C 51.40625 19.660156 51.621094 19.875 51.910156 20.039062 C 52.195312 20.199219 52.515625 20.28125 52.867188 20.28125 C 53.496094 20.28125 53.957031 19.992188 54.253906 19.414062 C 54.550781 18.832031 54.695312 17.929688 54.695312 16.699219 L 54.695312 15.390625 C 54.699219 14.46875 54.640625 13.746094 54.53125 13.226562 Z M 52.824219 16.59375 C 52.824219 17.195312 52.800781 17.664062 52.75 18.007812 C 52.703125 18.347656 52.617188 18.589844 52.5 18.734375 C 52.386719 18.878906 52.230469 18.949219 52.03125 18.949219 C 51.878906 18.949219 51.738281 18.914062 51.605469 18.84375 C 51.476562 18.769531 51.371094 18.664062 51.289062 18.519531 L 51.289062 13.828125 C 51.351562 13.605469 51.457031 13.421875 51.613281 13.277344 C 51.765625 13.132812 51.929688 13.0625 52.109375 13.0625 C 52.296875 13.0625 52.445312 13.136719 52.546875 13.285156 C 52.648438 13.429688 52.71875 13.683594 52.761719 14.03125 C 52.800781 14.378906 52.824219 14.878906 52.824219 15.523438 Z M 52.824219 16.59375 "/><path style=" stroke:none;fill-rule:nonzero;fill:#ffffff;fill-opacity:1;" d="M 65.476562 8.859375 L 62.941406 8.859375 L 62.941406 20.28125 L 64.589844 20.28125 L 64.589844 11.003906 L 66.40625 20.28125 L 67.929688 20.28125 L 69.832031 10.792969 L 69.832031 20.292969 L 71.4375 20.292969 L 71.4375 8.859375 L 68.816406 8.859375 L 67.1875 17.894531 Z M 65.476562 8.859375 "/><path style=" stroke:none;fill-rule:nonzero;fill:#ffffff;fill-opacity:1;" d="M 76.296875 20.292969 L 77.605469 20.292969 L 77.605469 11.902344 L 75.832031 11.902344 L 75.832031 18.527344 C 75.535156 19.035156 74.480469 19.457031 74.480469 18.445312 C 74.480469 17.429688 74.480469 11.902344 74.480469 11.902344 L 72.703125 11.902344 C 72.703125 11.902344 72.703125 17.261719 72.703125 18.699219 C 72.703125 20.132812 74.648438 21.402344 76 19.246094 Z M 76.296875 20.292969 "/><path style=" stroke:none;fill-rule:nonzero;fill:#ffffff;fill-opacity:1;" d="M 84.453125 11.902344 L 86.101562 11.902344 L 86.101562 20.292969 L 84.453125 20.292969 Z M 84.453125 11.902344 "/><path style=" stroke:none;fill-rule:nonzero;fill:#ffffff;fill-opacity:1;" d="M 85.320312 10.921875 C 84.75 10.921875 84.285156 10.453125 84.285156 9.882812 L 84.285156 9.632812 C 84.285156 9.0625 84.75 8.597656 85.320312 8.597656 C 85.890625 8.597656 86.355469 9.0625 86.355469 9.632812 L 86.355469 9.882812 C 86.355469 10.453125 85.890625 10.921875 85.320312 10.921875 Z M 85.320312 10.921875 "/><path style=" stroke:none;fill-rule:nonzero;fill:#ffffff;fill-opacity:1;" d="M 81.789062 14.578125 L 83.226562 14.578125 C 83.269531 13.878906 83.3125 11.765625 81.074219 11.765625 C 79.210938 11.765625 78.707031 12.949219 78.707031 14.007812 C 78.707031 15.0625 79.242188 15.808594 80.761719 16.992188 C 82.058594 17.667969 82.113281 19.21875 81.042969 19.21875 C 80.535156 19.21875 80.226562 18.878906 80.226562 18.402344 C 80.226562 17.921875 80.226562 17.640625 80.226562 17.640625 L 78.707031 17.640625 C 78.707031 17.640625 78.707031 18.289062 78.707031 18.515625 C 78.707031 19.273438 79.210938 20.429688 80.988281 20.429688 C 82.761719 20.429688 83.382812 19.445312 83.382812 17.921875 C 83.382812 16.402344 80.171875 14.90625 80.171875 13.863281 C 80.171875 12.652344 81.769531 12.789062 81.769531 13.667969 Z M 81.789062 14.578125 "/><g clip-rule="nonzero" clip-path="url(#a90396fa5c)"><path style=" stroke:none;fill-rule:nonzero;fill:#ffffff;fill-opacity:1;" d="M 89.128906 13.894531 C 88.960938 15.808594 89.101562 17.273438 89.160156 18.203125 C 89.234375 19.46875 90.566406 19.472656 90.566406 18.175781 C 90.566406 17.300781 90.566406 17.246094 90.566406 17.246094 L 92.117188 17.246094 C 92.117188 18.9375 91.527344 20.316406 89.863281 20.316406 C 87.917969 20.316406 87.355469 18.9375 87.355469 17.46875 C 87.355469 16.003906 87.355469 15.019531 87.355469 15.019531 C 87.355469 13.046875 88.199219 11.722656 89.804688 11.722656 C 91.945312 11.722656 92.003906 13.242188 92.003906 13.949219 C 92.003906 14.652344 92.003906 14.878906 92.003906 14.878906 L 90.566406 14.992188 C 90.566406 14.992188 90.566406 14.652344 90.566406 13.863281 C 90.566406 13.074219 89.582031 12.371094 89.128906 13.894531 Z M 89.128906 13.894531 "/></g></g></svg>